<svg width="48" height="48" viewBox="0 0 48 48" fill="none" xmlns="http://www.w3.org/2000/svg">
<path d="M4.99174 44.52L6.20574 43.48L2.71974 39.414C1.99772 38.568 1.59974 37.492 1.59974 36.38V15.0322C1.61174 12.1662 3.51774 9.6521 6.27373 8.86823L11.6958 7.07024C13.1818 6.57824 14.4758 5.63024 15.3918 4.36023C16.3078 3.09221 16.8018 1.56625 16.7998 0.000244141H15.1998C15.2018 2.52225 13.5859 4.76025 11.1918 5.55237L5.80203 7.33837C4.13204 7.82237 2.66603 8.83239 1.62002 10.2184C0.574003 11.6063 0.00604159 13.2944 0 15.0323V36.3802C0 37.8762 0.534015 39.3222 1.50799 40.4602L4.99174 44.52Z" fill="#0099A9"/>
<path d="M34.4078 5.55212C32.0138 4.76011 30.3978 2.52211 30.3998 0H28.7998C28.7978 1.566 29.2918 3.09202 30.2078 4.36198C31.1238 5.63 32.4178 6.57796 33.9038 7.06999L39.3597 8.88002C42.0997 9.67402 43.9897 12.178 43.9997 15.0322V34.952C43.9977 37.336 44.4817 39.694 45.4237 41.884L46.4636 44.314L47.9336 43.684L46.8937 41.254C46.0377 39.264 45.5977 37.118 45.5997 34.9518V15.0319C45.5957 13.3 45.0317 11.6159 43.9917 10.232C42.9517 8.84797 41.4917 7.83794 39.8297 7.35195L34.4078 5.55212Z" fill="#0099A9"/>
<path d="M7.19995 47.9998H8.79995C8.79795 45.9798 9.16195 43.9758 9.87197 42.0836L12.912 33.9777V33.9797C13.386 32.7117 13.424 31.3217 13.022 30.0297L9.56398 18.9598C9.44598 18.5818 9.06998 18.3458 8.67796 18.4058C8.28796 18.4658 7.99797 18.8038 7.99997 19.1998V33.736C7.99597 35.326 8.59998 36.858 9.68998 38.016L8.37399 41.52C7.596 43.592 7.19797 45.786 7.19997 47.9999L7.19995 47.9998ZM9.59995 33.736V24.4422L11.4959 30.5084C11.7919 31.4604 11.7639 32.4824 11.4159 33.4164L10.346 36.2684C9.85596 35.5143 9.59798 34.6344 9.59997 33.7364L9.59995 33.736Z" fill="#0099A9"/>
<path d="M36.9037 18.4058C36.5057 18.3558 36.1297 18.6058 36.0237 18.9937L33.6357 27.9599C33.0677 30.0859 33.0957 32.3278 33.7157 34.4397L36.1157 42.5897C36.5697 44.1337 36.7997 45.7337 36.7997 47.3417V47.9997H38.3997V47.3417C38.3997 45.5797 38.1477 43.8257 37.6497 42.1357L35.2497 33.9857C34.7117 32.1557 34.6877 30.2137 35.1797 28.3716L35.9997 25.3036V32.7998C35.9997 35.9898 36.8657 39.1179 38.5077 41.852L39.8797 41.0319C38.3877 38.5459 37.5997 35.7 37.5997 32.8V19.2003C37.5997 18.7983 37.3017 18.4583 36.9037 18.4063L36.9037 18.4058Z" fill="#0099A9"/>
<path d="M23.2 10.4657L21.6 10.3337L21.258 14.4337C20.948 18.1597 21.226 21.9135 22.082 25.5538C23.32 30.8356 23.282 36.3376 21.972 41.604L21.622 43.004L23.174 43.392L23.524 41.992C24.896 36.4798 24.936 30.7178 23.64 25.1882C22.822 21.7102 22.556 18.1262 22.852 14.5642L23.2 10.4657Z" fill="#0099A9"/>
<path d="M21.0021 35.2378C21.0321 34.6938 21.0481 34.1478 21.0521 33.6018L19.4521 33.5898C19.4481 34.1118 19.4321 34.6319 19.4041 35.1518L21.0021 35.2378Z" fill="#0099A9"/>
<path d="M19.3298 30.468C19.3738 30.988 19.4078 31.508 19.4258 32.028L21.0258 31.966C21.0058 31.422 20.9718 30.876 20.9258 30.332L19.3298 30.468Z" fill="#0099A9"/>
<path d="M18.5039 41.3322L20.0599 41.7082C20.1879 41.1782 20.3039 40.6442 20.4079 40.1082L18.8359 39.8042C18.7359 40.3142 18.6259 40.8242 18.5039 41.3322L18.5039 41.3322Z" fill="#0099A9"/>
<path d="M19.0957 38.2637L20.6797 38.4937C20.7597 37.9517 20.8257 37.4097 20.8797 36.8697L19.2877 36.7097C19.2337 37.2297 19.1697 37.7477 19.0957 38.2637L19.0957 38.2637Z" fill="#0099A9"/>
<path d="M25.4497 41.3322L27.0057 41.7062C27.1317 41.1762 27.2477 40.6423 27.3537 40.1062L25.7817 39.8022C25.6837 40.3162 25.5717 40.8262 25.4497 41.3323L25.4497 41.3322Z" fill="#0099A9"/>
<path d="M27.9996 33.5999L26.3996 33.5879C26.3956 34.1099 26.3796 34.6299 26.3516 35.1519L27.9516 35.2319C27.9796 34.6899 27.9956 34.1479 27.9996 33.5999V33.5999Z" fill="#0099A9"/>
<path d="M27.826 36.87L26.2339 36.71C26.1799 37.228 26.1179 37.7459 26.0439 38.2619L27.628 38.4919C27.706 37.9499 27.772 37.4099 27.826 36.8699L27.826 36.87Z" fill="#0099A9"/>
<path d="M27.9718 31.9663C27.9498 31.4223 27.9158 30.8763 27.8718 30.3323L26.2778 30.4683C26.3218 30.9883 26.3538 31.5082 26.3738 32.0283L27.9718 31.9663Z" fill="#0099A9"/>
<path d="M29.6636 24.7997C29.6576 24.7997 29.0176 24.6837 27.7636 23.4316C26.6496 22.3196 26.3996 19.4217 26.3996 18.3997H24.7996C24.7996 18.8437 24.8516 22.7837 26.6335 24.5657C28.3355 26.2677 29.3335 26.3996 29.5996 26.3996L29.6636 24.7997Z" fill="#0099A9"/>
<path d="M16.2336 23.4341C15.7336 24.0221 15.1077 24.4901 14.3997 24.8001V26.4001C14.6657 26.4001 15.6637 26.2681 17.3657 24.5662C19.1477 22.7841 19.1997 18.844 19.1997 18.4001H17.5997C17.5997 19.4221 17.3497 22.3201 16.2336 23.4341Z" fill="#0099A9"/>
</svg>
