<svg width="6" height="12" viewBox="0 0 6 12" fill="none" xmlns="http://www.w3.org/2000/svg">
<path d="M5.9948 5.90803C5.97504 5.73162 5.89893 5.56748 5.77818 5.4417L1.28152 0.729335C1.14026 0.582073 0.948519 0.5 0.749448 0.5C0.550377 0.500767 0.359363 0.58437 0.218842 0.732398C0.0783215 0.880427 -0.000725746 1.08137 4.76837e-06 1.28999C0.00073719 1.49861 0.0805125 1.69879 0.221766 1.84605L4.18557 6L0.221766 10.1539C0.0805125 10.3012 0.00073576 10.5014 4.76837e-06 10.71C-0.0007267 10.9194 0.0783162 11.1196 0.218842 11.2676C0.359368 11.4156 0.550377 11.4992 0.749448 11.5C0.948519 11.5008 1.14026 11.4179 1.28152 11.2707L5.77818 6.5583C5.94212 6.38802 6.02189 6.14797 5.9948 5.90789V5.90803Z" fill="#1D447B"/>
</svg>
