<svg width="32" height="34" viewBox="0 0 32 34" fill="none" xmlns="http://www.w3.org/2000/svg">
<path d="M21.1259 1.90256C21.1259 0.699146 23.025 0.699146 23.025 1.90256V3.75396H26.6332C29.0072 3.75396 31 5.69794 31 8.10353V28.6504C31 31.0573 29.0059 33 26.6332 33H5.4617C2.99282 33 1 31.056 1 28.6504V8.10353C1 5.69669 2.9941 3.75396 5.4617 3.75396H9.06995V1.90256C9.06995 0.699146 10.9691 0.699146 10.9691 1.90256V3.75396H21.1283V1.90256H21.1259ZM23.025 5.60523V7.45663C23.025 8.66005 21.1259 8.66005 21.1259 7.45663V5.60523H10.9666V7.45663C10.9666 8.66005 9.06752 8.66005 9.06752 7.45663V5.60523H5.45927C4.03492 5.60523 2.89542 6.7161 2.89542 8.10465V11.5297H29.0999V8.10465C29.0999 6.7161 27.9604 5.60523 26.631 5.60523H23.0228H23.025ZM2.89676 13.3798V28.6517C2.89676 30.0402 4.03627 31.1511 5.46061 31.1511H26.6322C27.9616 31.1511 29.101 30.0402 29.101 28.6517V13.3798H2.89676Z" fill="white" stroke="white"/>
<path d="M10.1136 20.8772C9.25899 19.9515 10.5884 18.6556 11.443 19.5813L14.8614 22.8212L20.5576 17.2681C21.4122 16.3424 22.7416 17.731 21.887 18.5641L15.5263 24.765C15.1464 25.1353 14.5767 25.1353 14.1968 24.765L10.1136 20.8772Z" fill="white" stroke="white"/>
</svg>
