<svg width="45" height="48" viewBox="0 0 45 48" fill="none" xmlns="http://www.w3.org/2000/svg">
<path d="M17.8761 14.1193C18.3597 14.8677 19.8431 15.9892 21.9871 14.8734C23.0078 14.3402 25.6298 14.9762 27.2385 15.6179C27.6479 15.913 28.6933 16.5871 29.693 16.5871C30.0757 16.5871 30.4528 16.4881 30.786 16.2291C31.1916 15.9968 33.9907 14.4849 36.2148 15.6274C37.4963 16.2863 38.456 16.0635 39.0368 15.7607C40.7125 14.8886 41.0952 12.4132 41.1352 12.1333C41.2075 11.6001 40.8362 11.1108 40.305 11.0365C39.7718 10.9623 39.2805 11.3336 39.2044 11.8648C39.1244 12.4323 38.755 13.7099 38.1362 14.0298C38.0429 14.0774 37.7592 14.2259 37.1079 13.8908C33.7319 12.1542 29.8779 14.4963 29.7141 14.5972C29.6932 14.6106 29.6722 14.6239 29.6513 14.6391C29.3961 14.6296 28.7601 14.3211 28.3108 13.9822C28.2441 13.9308 28.1699 13.8889 28.0918 13.8565C27.6119 13.6585 23.3466 11.9619 21.0865 13.1405C20.123 13.6432 19.6717 13.2605 19.527 13.072C18.8434 11.7981 19.626 11.1545 19.8735 10.9946C19.984 10.9279 20.0811 10.8384 20.1573 10.7337C23.0535 6.72165 21.4311 2.23189 20.1668 0.417071C19.8602 -0.0246902 19.2547 -0.131322 18.813 0.173341C18.3712 0.478004 18.2608 1.08543 18.5654 1.52907C18.6797 1.69663 21.3131 5.62106 18.674 9.45616C17.64 10.2045 16.6632 11.9372 17.8457 14.0642C17.8533 14.0813 17.8647 14.1004 17.8761 14.1194L17.8761 14.1193Z" fill="#0099A9"/>
<path d="M9.26941 27.991C9.92061 28.2233 10.4843 28.4232 11.0136 28.4232C11.9162 28.4232 12.7292 28.0691 13.3024 27.4236C13.885 26.7705 14.1573 25.8736 14.0526 24.9615C14.0355 24.8225 14.0164 24.6663 13.9955 24.4988C13.8375 23.2611 13.5747 21.1875 14.0088 19.9174C14.5249 18.3979 14.4582 17.9904 13.9555 16.9165C13.847 16.6842 13.7251 16.4234 13.5785 16.0673C13.5099 15.8997 13.4433 15.7436 13.3786 15.595C12.8473 14.3612 12.6702 13.9441 14.1669 11.1984C16.33 7.23205 14.2069 4.05415 14.1155 3.92058C13.8108 3.47691 13.2034 3.36268 12.7597 3.66733C12.3161 3.97198 12.2018 4.57942 12.5065 5.02306C12.5217 5.04591 14.0508 7.3366 12.4551 10.2652C10.6728 13.5346 10.8023 14.5343 11.5887 16.3643C11.6477 16.5033 11.7106 16.65 11.7753 16.8061C11.9391 17.206 12.0781 17.5049 12.1904 17.7448C12.4798 18.3618 12.4798 18.3618 12.1638 19.2929C11.5849 20.9895 11.8724 23.2516 12.0628 24.7501C12.0838 24.9119 12.1028 25.0604 12.1181 25.1918C12.1599 25.5498 12.0609 25.8906 11.8496 26.1287C11.6477 26.3553 11.3583 26.4752 11.0156 26.4752C10.8214 26.4752 10.3453 26.3057 9.92449 26.1553C8.31168 25.5822 5.61158 24.6225 2.7632 26.6561C1.8378 27.3168 1.16374 27.8214 0.761929 28.1546C0.415373 28.4422 -0.306294 29.0401 0.143096 29.8112C0.179275 29.8741 0.451567 30.3044 1.00566 30.3044C1.17703 30.3044 1.37506 30.2625 1.60168 30.1578C1.62643 30.1464 0.754324 28.404 0.779087 28.3888C0.986638 28.3089 1.49887 28.3412 1.79208 28.7716C2.0758 29.1905 1.94632 29.6703 1.76923 29.8646C1.81493 29.815 2.12911 29.5047 3.89617 28.2422C5.91455 26.7989 7.7749 27.4596 9.26945 27.9909L9.26941 27.991Z" fill="#0099A9"/>
<path d="M28.5699 46.115C24.5027 44.5193 24.0419 43.5367 25.2834 39.1058C25.9327 36.7941 25.8794 34.9757 25.1253 33.6979C24.4475 32.5516 23.4478 32.2888 23.3354 32.2622C23.2555 32.2431 23.1717 32.2336 23.0898 32.2374C21.8254 32.2679 19.4815 32.1365 18.5579 31.6471C16.8594 30.7484 15.3475 31.7347 14.7515 32.4164C14.5592 32.5973 12.7503 34.193 10.2234 32.7782C6.99592 30.9712 4.02343 33.2657 2.90373 34.7337C2.57622 35.1622 2.65809 35.7734 3.08653 36.1009C3.51496 36.4284 4.12619 36.3466 4.45371 35.9181C4.5432 35.8001 6.69681 33.0391 9.27119 34.4805C12.4302 36.2495 15.1587 34.789 16.1605 33.7684C16.1776 33.7493 16.1967 33.7303 16.2119 33.7113C16.2386 33.6808 16.8574 32.9553 17.6476 33.3723C19.1576 34.172 22.1052 34.2025 22.9488 34.193C23.2763 34.3606 24.3597 35.1927 23.4096 38.5821C21.9034 43.9592 22.8593 45.97 27.8614 47.9335C27.9776 47.9792 28.0995 48.0002 28.2175 48.0002C28.606 48.0002 28.9754 47.7659 29.1258 47.3813C29.3181 46.8767 29.0706 46.3112 28.5698 46.115L28.5699 46.115Z" fill="#0099A9"/>
<path d="M43.5648 16.5324C43.0355 16.4372 42.5289 16.7894 42.4337 17.3207C42.2585 18.3032 41.8092 19.0268 41.0608 19.5352C39.0158 20.9234 35.5199 20.2284 35.4872 20.2227C35.4377 20.2131 35.3882 20.2055 35.3368 20.2036C33.6878 20.1217 32.5358 20.5007 31.9151 21.329C31.2696 22.1934 31.4809 23.1665 31.5647 23.454C32.3701 27.1537 31.2505 27.9821 30.167 28.782L29.99 28.9133C28.4914 30.0387 28.8113 31.7105 29.1902 32.4379C29.3559 32.7578 29.6853 32.9578 30.0452 32.9616C30.0452 32.9616 30.1061 33.0358 30.1214 33.0587C30.2089 33.1843 30.5955 33.9422 29.6606 36.4557C28.8875 38.5446 28.8856 40.165 29.6567 41.2732C30.525 42.5185 31.957 42.5547 32.1188 42.5547C32.6577 42.5547 33.0937 42.1186 33.0937 41.5797C33.0937 41.0408 32.6577 40.6048 32.1188 40.6048C32.1131 40.6048 31.5495 40.5782 31.2581 40.1592C31.0411 39.847 30.7821 39.0396 31.4886 37.1336C32.3854 34.7172 32.4635 33.0225 31.7266 31.9524C31.4695 31.581 31.142 31.3373 30.8202 31.1907C30.8011 30.9755 30.8564 30.6994 31.1572 30.4728L31.3229 30.3509C32.6082 29.4008 34.5523 27.9651 33.4574 22.9971C33.4498 22.959 33.4384 22.9209 33.4251 22.8848C33.4251 22.8829 33.366 22.6372 33.4727 22.4963C33.6193 22.2983 34.1467 22.1079 35.1674 22.1479C35.79 22.264 39.5888 22.8828 42.1439 21.1539C43.3378 20.3465 44.0785 19.1736 44.3489 17.6655C44.446 17.1343 44.0937 16.6277 43.5644 16.5325L43.5648 16.5324Z" fill="#0099A9"/>
<path d="M28.1697 21.0504C28.1697 19.4205 26.8425 18.0952 25.2126 18.0952C23.5846 18.0952 22.2593 19.4205 22.2593 21.0504C22.2593 22.6804 23.5846 24.0057 25.2126 24.0057C26.8426 24.0076 28.1697 22.6804 28.1697 21.0504ZM25.2126 22.0577C24.6585 22.0577 24.2091 21.6065 24.2091 21.0524C24.2091 20.4982 24.6585 20.047 25.2126 20.047C25.7686 20.047 26.2199 20.4982 26.2199 21.0524C26.2199 21.6065 25.7667 22.0577 25.2126 22.0577Z" fill="#0099A9"/>
<path d="M18.1753 28.4155C19.6663 28.4155 20.8773 27.2044 20.8773 25.7154C20.8773 24.2244 19.6644 23.0115 18.1753 23.0115C16.6844 23.0115 15.4714 24.2244 15.4714 25.7154C15.4714 27.2044 16.6844 28.4155 18.1753 28.4155ZM18.1753 24.9614C18.5904 24.9614 18.9275 25.3003 18.9275 25.7154C18.9275 26.1286 18.5905 26.4657 18.1753 26.4657C17.7602 26.4657 17.4213 26.1286 17.4213 25.7154C17.4213 25.3003 17.7583 24.9614 18.1753 24.9614Z" fill="#0099A9"/>
<path d="M19.2283 21.6086C20.3479 21.6086 21.2581 20.6984 21.2581 19.5826C21.2581 18.4649 20.3479 17.5547 19.2283 17.5547C18.1105 17.5547 17.2003 18.4649 17.2003 19.5826C17.2003 20.6985 18.1086 21.6086 19.2283 21.6086ZM19.2283 19.5026C19.272 19.5026 19.3082 19.5369 19.3082 19.5807C19.3082 19.6245 19.274 19.6569 19.2283 19.6569C19.1845 19.6569 19.1502 19.6226 19.1502 19.5807C19.1502 19.5369 19.1845 19.5026 19.2283 19.5026Z" fill="#0099A9"/>
<path d="M22.2578 28.2005C22.2578 29.423 23.2518 30.417 24.4742 30.417C25.6986 30.417 26.6926 29.423 26.6926 28.2005C26.6926 26.9781 25.6967 25.9822 24.4742 25.9822C23.2518 25.9822 22.2578 26.9781 22.2578 28.2005ZM24.7427 28.2005C24.7427 28.3471 24.6228 28.4671 24.4743 28.4671C24.3276 28.4671 24.2077 28.3471 24.2077 28.2005C24.2077 28.0539 24.3276 27.932 24.4743 27.932C24.6228 27.932 24.7427 28.052 24.7427 28.2005Z" fill="#0099A9"/>
</svg>
