<svg width="51" height="50" viewBox="0 0 51 50" fill="none" xmlns="http://www.w3.org/2000/svg">
<path d="M39.8073 33.6317C39.4903 33.6317 39.1801 33.4663 39.0101 33.1722L36.6804 29.1354C36.4277 28.6966 36.577 28.1337 37.0158 27.881C37.4547 27.626 38.0175 27.7776 38.2703 28.2164L40.5999 32.2532C40.8527 32.692 40.7033 33.2549 40.2645 33.5076C40.1221 33.5927 39.9635 33.6317 39.8073 33.6317H39.8073Z" fill="#0099A9" stroke="#0099A9" stroke-width="0.2"/>
<path d="M37.4752 29.5946H32.8135C32.3058 29.5946 31.8945 29.1834 31.8945 28.6756C31.8945 28.1679 32.3058 27.7566 32.8135 27.7566H37.4752C37.983 27.7566 38.3943 28.1679 38.3943 28.6756C38.3943 29.1834 37.983 29.5946 37.4752 29.5946Z" fill="#0099A9" stroke="#0099A9" stroke-width="0.2"/>
<path d="M28.5703 45.0206C28.2533 45.0206 27.9431 44.8552 27.7731 44.5611L22.259 35.0104C22.0063 34.5693 22.1556 34.0087 22.5944 33.756C23.0356 33.501 23.5961 33.6526 23.8489 34.0914L29.363 43.6421C29.6157 44.0832 29.4663 44.6438 29.0275 44.8965C28.8851 44.9816 28.7265 45.0206 28.5703 45.0206H28.5703Z" fill="#0099A9" stroke="#0099A9" stroke-width="0.2"/>
<path d="M39.5985 45.0204H28.5704C28.0626 45.0204 27.6514 44.6091 27.6514 44.1014C27.6514 43.5936 28.0626 43.1824 28.5704 43.1824H39.5985C40.1063 43.1824 40.5175 43.5936 40.5175 44.1014C40.5175 44.6091 40.1063 45.0204 39.5985 45.0204Z" fill="#0099A9" stroke="#0099A9" stroke-width="0.2"/>
<path d="M41.8959 49C41.5788 49 41.2687 48.8346 41.0986 48.5405L38.8011 44.5612C38.5484 44.12 38.6977 43.5595 39.1366 43.3067C39.5754 43.054 40.1383 43.2033 40.391 43.6422L42.6885 47.6215C42.9412 48.0626 42.7919 48.6232 42.3531 48.8759C42.2106 48.9609 42.0521 49 41.8959 49H41.8959Z" fill="#0099A9" stroke="#0099A9" stroke-width="0.2"/>
<path d="M26.2724 49C26.1162 49 25.9599 48.961 25.8129 48.876C25.3718 48.6233 25.2224 48.0604 25.4774 47.6215L27.7749 43.6422C28.0277 43.2011 28.5883 43.0518 29.0294 43.3068C29.4705 43.5595 29.6199 44.1224 29.3648 44.5612L27.0673 48.5405C26.8973 48.8346 26.5894 49 26.2724 49H26.2724Z" fill="#0099A9" stroke="#0099A9" stroke-width="0.2"/>
<path d="M49.7074 35.4696H45.1124C44.6046 35.4696 44.1934 35.0584 44.1934 34.5506C44.1934 34.0429 44.6046 33.6316 45.1124 33.6316H49.7074C50.2152 33.6316 50.6264 34.0429 50.6264 34.5506C50.6264 35.0584 50.2152 35.4696 49.7074 35.4696Z" fill="#0099A9" stroke="#0099A9" stroke-width="0.2"/>
<path d="M39.5986 45.0206C39.4423 45.0206 39.2861 44.9816 39.1391 44.8965C38.6979 44.6438 38.5486 44.0809 38.8036 43.6421L44.3177 34.0914C44.5704 33.6526 45.131 33.501 45.5721 33.756C46.0133 34.0087 46.1626 34.5716 45.9076 35.0104L40.3935 44.5611C40.2235 44.8552 39.9156 45.0206 39.5985 45.0206H39.5986Z" fill="#0099A9" stroke="#0099A9" stroke-width="0.2"/>
<path d="M23.0557 35.4699C22.8995 35.4699 22.7432 35.4308 22.5962 35.3458C22.1551 35.0931 22.0057 34.5302 22.2608 34.0913L27.7748 24.5407C28.0276 24.0995 28.5882 23.9502 29.0293 24.2052C29.4704 24.458 29.6198 25.0208 29.3647 25.4597L23.8507 35.0103C23.6806 35.3044 23.3728 35.4699 23.0557 35.4699H23.0557Z" fill="#0099A9" stroke="#0099A9" stroke-width="0.2"/>
<path d="M39.5985 25.9183H28.5704C28.0626 25.9183 27.6514 25.5071 27.6514 24.9993C27.6514 24.4916 28.0626 24.0803 28.5704 24.0803H39.5985C40.1063 24.0803 40.5175 24.4916 40.5175 24.9993C40.5175 25.5071 40.1063 25.9183 39.5985 25.9183Z" fill="#0099A9" stroke="#0099A9" stroke-width="0.2"/>
<path d="M45.112 35.4698C44.7949 35.4698 44.4847 35.3044 44.3147 35.0103L38.8006 25.4597C38.5479 25.0185 38.6972 24.4579 39.1361 24.2052C39.5749 23.9502 40.1378 24.1018 40.3905 24.5406L45.9046 34.0913C46.1573 34.5324 46.008 35.093 45.5691 35.3458C45.4267 35.4308 45.2682 35.4698 45.1119 35.4698H45.112Z" fill="#0099A9" stroke="#0099A9" stroke-width="0.2"/>
<path d="M23.2651 24.0812C22.948 24.0812 22.6379 23.9158 22.4678 23.6217L20.1382 19.5849C19.8854 19.1461 20.0348 18.5832 20.4736 18.3305C20.9124 18.0754 21.4753 18.2271 21.728 18.6659L24.0577 22.7027C24.3104 23.1415 24.1611 23.7044 23.7223 23.9571C23.5798 24.0421 23.4213 24.0812 23.2651 24.0812H23.2651Z" fill="#0099A9" stroke="#0099A9" stroke-width="0.2"/>
<path d="M20.933 20.0438H16.2713C15.7636 20.0438 15.3523 19.6326 15.3523 19.1248C15.3523 18.6171 15.7636 18.2058 16.2713 18.2058H20.933C21.4408 18.2058 21.852 18.6171 21.852 19.1248C21.852 19.6326 21.4408 20.0438 20.933 20.0438Z" fill="#0099A9" stroke="#0099A9" stroke-width="0.2"/>
<path d="M39.8073 14.5299C39.4903 14.5299 39.1801 14.3644 39.0101 14.0704L36.6804 10.0336C36.4277 9.59246 36.577 9.03188 37.0158 8.77914C37.4547 8.52641 38.0175 8.67576 38.2703 9.11458L40.5999 13.1514C40.8527 13.5925 40.7033 14.1531 40.2645 14.4058C40.1221 14.4908 39.9635 14.5299 39.8073 14.5299H39.8073Z" fill="#0099A9" stroke="#0099A9" stroke-width="0.2"/>
<path d="M37.4752 10.4933H32.8135C32.3058 10.4933 31.8945 10.082 31.8945 9.57429C31.8945 9.06653 32.3058 8.65527 32.8135 8.65527H37.4752C37.983 8.65527 38.3943 9.06653 38.3943 9.57429C38.3943 10.082 37.983 10.4933 37.4752 10.4933Z" fill="#0099A9" stroke="#0099A9" stroke-width="0.2"/>
<path d="M26.447 22.2424C26.13 22.2424 25.8198 22.077 25.6498 21.7829L22.2586 15.9081C22.0059 15.467 22.1552 14.9064 22.5941 14.6537C23.0329 14.4009 23.5958 14.5503 23.8485 14.9891L27.2397 20.8639C27.4924 21.305 27.343 21.8656 26.9042 22.1183C26.7618 22.2033 26.6032 22.2424 26.447 22.2424H26.447Z" fill="#0099A9" stroke="#0099A9" stroke-width="0.2"/>
<path d="M39.5986 25.9186C39.4423 25.9186 39.2861 25.8795 39.1391 25.7945C38.6979 25.5418 38.5486 24.9789 38.8036 24.5401L44.3177 14.9894C44.5704 14.5483 45.131 14.3989 45.5721 14.654C46.0133 14.9067 46.1626 15.4696 45.9076 15.9084L40.3935 25.4591C40.2235 25.7532 39.9156 25.9186 39.5985 25.9186H39.5986Z" fill="#0099A9" stroke="#0099A9" stroke-width="0.2"/>
<path d="M39.5985 25.9183H28.5704C28.0626 25.9183 27.6514 25.5071 27.6514 24.9993C27.6514 24.4916 28.0626 24.0803 28.5704 24.0803H39.5985C40.1063 24.0803 40.5175 24.4916 40.5175 24.9993C40.5175 25.5071 40.1063 25.9183 39.5985 25.9183Z" fill="#0099A9" stroke="#0099A9" stroke-width="0.2"/>
<path d="M23.0557 16.3678C22.8995 16.3678 22.7432 16.3288 22.5962 16.2438C22.1551 15.991 22.0057 15.4282 22.2608 14.9893L27.7748 5.43866C28.0276 4.99753 28.5882 4.8459 29.0293 5.10322C29.4704 5.35595 29.6198 5.91883 29.3647 6.35766L23.8507 15.9083C23.6806 16.2047 23.3728 16.3678 23.0557 16.3678H23.0557Z" fill="#0099A9" stroke="#0099A9" stroke-width="0.2"/>
<path d="M39.5985 6.81727H28.5704C28.0626 6.81727 27.6514 6.40601 27.6514 5.89826C27.6514 5.39051 28.0626 4.97925 28.5704 4.97925H39.5985C40.1063 4.97925 40.5175 5.39051 40.5175 5.89826C40.5175 6.40601 40.1063 6.81727 39.5985 6.81727Z" fill="#0099A9" stroke="#0099A9" stroke-width="0.2"/>
<path d="M45.112 16.3678C44.7949 16.3678 44.4847 16.2024 44.3147 15.9083L38.8006 6.35761C38.5479 5.91648 38.6972 5.3559 39.1361 5.10316C39.5772 4.84814 40.1378 4.99977 40.3905 5.4386L45.9046 14.9893C46.1573 15.4304 46.008 15.991 45.5691 16.2437C45.4267 16.3287 45.2682 16.3678 45.1119 16.3678H45.112Z" fill="#0099A9" stroke="#0099A9" stroke-width="0.2"/>
<path d="M23.0557 35.4699C22.8995 35.4699 22.7432 35.4308 22.5962 35.3458C22.1551 35.0931 22.0057 34.5302 22.2608 34.0913L27.7748 24.5407C28.0276 24.0995 28.5882 23.9502 29.0293 24.2052C29.4704 24.458 29.6198 25.0208 29.3647 25.4597L23.8507 35.0103C23.6806 35.3044 23.3728 35.4699 23.0557 35.4699H23.0557Z" fill="#0099A9" stroke="#0099A9" stroke-width="0.2"/>
<path d="M23.0557 35.4696H12.0275C11.5198 35.4696 11.1085 35.0584 11.1085 34.5506C11.1085 34.0429 11.5198 33.6316 12.0275 33.6316H23.0557C23.5634 33.6316 23.9747 34.0429 23.9747 34.5506C23.9747 35.0584 23.5634 35.4696 23.0557 35.4696Z" fill="#0099A9" stroke="#0099A9" stroke-width="0.2"/>
<path d="M12.0276 35.4698C11.7106 35.4698 11.4004 35.3044 11.2304 35.0103L5.71628 25.4597C5.46355 25.0185 5.61289 24.4579 6.05171 24.2052C6.49054 23.9502 7.05342 24.1018 7.30616 24.5406L12.8202 34.0913C13.073 34.5324 12.9236 35.093 12.4848 35.3458C12.3423 35.4308 12.1838 35.4698 12.0276 35.4698H12.0276Z" fill="#0099A9" stroke="#0099A9" stroke-width="0.2"/>
<path d="M6.51409 25.9186C6.35786 25.9186 6.20162 25.8795 6.05458 25.7945C5.61345 25.5418 5.46412 24.9789 5.71914 24.5401L11.2332 14.9894C11.4859 14.5483 12.0465 14.3989 12.4877 14.654C12.9288 14.9067 13.0781 15.4696 12.8231 15.9084L7.30903 25.4591C7.13901 25.7532 6.83114 25.9186 6.51406 25.9186H6.51409Z" fill="#0099A9" stroke="#0099A9" stroke-width="0.2"/>
<path d="M23.0557 16.3678H12.0275C11.5198 16.3678 11.1085 15.9566 11.1085 15.4488C11.1085 14.941 11.5198 14.5298 12.0275 14.5298H23.0557C23.5634 14.5298 23.9747 14.941 23.9747 15.4488C23.9747 15.9566 23.5634 16.3678 23.0557 16.3678Z" fill="#0099A9" stroke="#0099A9" stroke-width="0.2"/>
<path d="M25.3536 39.4488C25.0366 39.4488 24.7264 39.2833 24.5564 38.9893L22.2589 35.0099C22.0061 34.5688 22.1555 34.0082 22.5943 33.7555C23.0354 33.5005 23.596 33.6521 23.8488 34.0909L26.1463 38.0703C26.399 38.5114 26.2497 39.072 25.8108 39.3247C25.6684 39.4097 25.5098 39.4488 25.3536 39.4488H25.3536Z" fill="#0099A9" stroke="#0099A9" stroke-width="0.2"/>
<path d="M9.73014 39.4488C9.57391 39.4488 9.41767 39.4097 9.27063 39.3247C8.8318 39.072 8.68017 38.5091 8.93519 38.0703L11.2327 34.0909C11.4854 33.6521 12.046 33.5005 12.4871 33.7555C12.926 34.0082 13.0776 34.5711 12.8226 35.0099L10.5251 38.9893C10.3551 39.2856 10.0472 39.4488 9.73011 39.4488H9.73014Z" fill="#0099A9" stroke="#0099A9" stroke-width="0.2"/>
<path d="M12.0276 16.3679C11.7105 16.3679 11.4004 16.2025 11.2303 15.9084L8.93283 11.9291C8.6801 11.488 8.82944 10.9274 9.26827 10.6746C9.70939 10.4219 10.27 10.5713 10.5227 11.0101L12.8202 14.9894C13.0729 15.4305 12.9236 15.9911 12.4848 16.2438C12.3423 16.3289 12.1838 16.3679 12.0276 16.3679H12.0276Z" fill="#0099A9" stroke="#0099A9" stroke-width="0.2"/>
<path d="M41.8959 29.898C41.5788 29.898 41.2687 29.7326 41.0986 29.4385L38.8011 25.4592C38.5484 25.018 38.6977 24.4575 39.1366 24.2047C39.5754 23.9497 40.1383 24.1013 40.391 24.5402L42.6885 28.5195C42.9412 28.9606 42.7919 29.5212 42.3531 29.7739C42.2106 29.8589 42.0521 29.898 41.8959 29.898H41.8959Z" fill="#0099A9" stroke="#0099A9" stroke-width="0.2"/>
<path d="M28.5704 6.81717C28.2533 6.81717 27.9431 6.65175 27.7731 6.35767L25.4756 2.37836C25.2229 1.93953 25.3722 1.37665 25.8133 1.12391C26.2522 0.868888 26.815 1.02052 27.0678 1.45935L29.3653 5.43866C29.618 5.87979 29.4687 6.44037 29.0298 6.6931C28.8851 6.77811 28.7266 6.81717 28.5703 6.81717H28.5704Z" fill="#0099A9" stroke="#0099A9" stroke-width="0.2"/>
<path d="M39.5986 6.81717C39.4423 6.81717 39.2861 6.77811 39.1391 6.6931C38.6979 6.44037 38.5486 5.87749 38.8036 5.43866L41.1011 1.45935C41.3538 1.02052 41.9144 0.868888 42.3556 1.12391C42.7967 1.37664 42.946 1.93952 42.691 2.37836L40.3935 6.35767C40.2235 6.65405 39.9156 6.81717 39.5985 6.81717H39.5986Z" fill="#0099A9" stroke="#0099A9" stroke-width="0.2"/>
<path d="M6.51408 25.9183H1.91901C1.41126 25.9183 1 25.5071 1 24.9993C1 24.4916 1.41126 24.0803 1.91901 24.0803H6.51408C7.02183 24.0803 7.43309 24.4916 7.43309 24.9993C7.43309 25.5071 7.02183 25.9183 6.51408 25.9183Z" fill="#0099A9" stroke="#0099A9" stroke-width="0.2"/>
<path d="M49.7074 16.3678H45.1124C44.6046 16.3678 44.1934 15.9566 44.1934 15.4488C44.1934 14.941 44.6046 14.5298 45.1124 14.5298H49.7074C50.2152 14.5298 50.6264 14.941 50.6264 15.4488C50.6264 15.9566 50.2152 16.3678 49.7074 16.3678Z" fill="#0099A9" stroke="#0099A9" stroke-width="0.2"/>
</svg>
