<svg width="30" height="30" viewBox="0 0 30 30" fill="none" xmlns="http://www.w3.org/2000/svg">
<path fill-rule="evenodd" clip-rule="evenodd" d="M27 0H3C1.34315 0 0 1.34315 0 3V27C0 28.6569 1.34315 30 3 30H15V18.7059H10.5V14.4706H15V12.1962C15 7.89035 17.2345 6 20.8874 6C22.6025 6 23.5254 6.12213 23.9737 6.18146L24 6.18494V10.2353H21.5085C19.958 10.2353 19.5 11.0372 19.5 12.6607V14.4706H23.9611L23.3443 18.7059H19.5V30H27C28.6569 30 30 28.6569 30 27V3C30 1.34315 28.6569 0 27 0Z" fill="#0099A9"/>
</svg>
