<svg width="8" height="13" viewBox="0 0 8 13" fill="none" xmlns="http://www.w3.org/2000/svg">
<path d="M7.99375 6.07989C7.97 5.89088 7.8785 5.71502 7.73334 5.58025L2.32778 0.531292C2.15798 0.373511 1.92747 0.285576 1.68817 0.285576C1.44886 0.286397 1.21923 0.375971 1.05031 0.534574C0.881386 0.693176 0.786361 0.90847 0.78724 1.13199C0.78812 1.35551 0.88402 1.56999 1.05382 1.72777L5.81882 6.17843L1.05382 10.6291C0.88402 10.7869 0.788118 11.0013 0.78724 11.2249C0.78636 11.4492 0.88138 11.6637 1.05031 11.8223C1.21924 11.9809 1.44886 12.0705 1.68817 12.0713C1.92747 12.0721 2.15798 11.9834 2.32778 11.8256L7.73334 6.77661C7.93042 6.59417 8.02632 6.33697 7.99375 6.07974V6.07989Z" fill="#0099A9"/>
</svg>
