<svg width="22" height="24" viewBox="0 0 22 24" fill="none" xmlns="http://www.w3.org/2000/svg">
<path d="M14.4172 1.62051C14.4172 0.793163 15.6833 0.793163 15.6833 1.62051V2.89335H18.0888C19.6715 2.89335 21 4.22984 21 5.88367V20.0097C21 21.6644 19.6706 23 18.0888 23H3.97446C2.32854 23 1 21.6635 1 20.0097V5.88367C1 4.22898 2.3294 2.89335 3.97446 2.89335H6.37997V1.62051C6.37997 0.793163 7.64605 0.793163 7.64605 1.62051V2.89335H14.4189V1.62051H14.4172ZM15.6833 4.1661V5.43893C15.6833 6.26628 14.4172 6.26628 14.4172 5.43893V4.1661H7.64443V5.43893C7.64443 6.26628 6.37835 6.26628 6.37835 5.43893V4.1661H3.97284C3.02328 4.1661 2.26361 4.92982 2.26361 5.88445V8.23915H19.7333V5.88445C19.7333 4.92982 18.9736 4.1661 18.0874 4.1661H15.6819H15.6833ZM2.26451 9.51112V20.0105C2.26451 20.9651 3.02418 21.7289 3.97374 21.7289H18.0881C18.9744 21.7289 19.734 20.9651 19.734 20.0105V9.51112H2.26451Z" fill="#0099A9" stroke="#0099A9"/>
<path d="M7.07525 14.6656C6.5055 14.0292 7.39177 13.1382 7.96153 13.7746L10.2404 16.002L14.0379 12.1843C14.6077 11.5479 15.4939 12.5025 14.9242 13.0753L10.6837 17.3384C10.4305 17.593 10.0506 17.593 9.79741 17.3384L7.07525 14.6656Z" fill="#0099A9" stroke="#0099A9"/>
</svg>
