<svg width="38" height="50" viewBox="0 0 38 50" fill="none" xmlns="http://www.w3.org/2000/svg">
<path d="M15.6964 48.9959C15.3332 49.0034 15.0137 48.7579 14.9357 48.4072C14.369 46.0206 13.5683 43.694 12.5433 41.459C10.9838 41.834 7.81162 41.864 7.38163 41.7177C6.18733 41.3128 4.47954 40.1354 4.6849 38.5531L4.77238 37.8856C4.87888 37.0945 5.01201 36.1158 4.93594 35.8721C4.85226 35.6584 4.74195 35.4559 4.60883 35.2684C4.35019 34.976 4.23418 34.5841 4.29313 34.1998C4.35779 33.9917 4.45859 33.7948 4.59361 33.6223C3.95462 33.1874 2.9923 32.4974 3.49819 31.6126C3.64463 31.262 3.73591 30.8926 3.76825 30.5139C3.55145 30.4277 3.22433 30.3227 3.00754 30.2514C2.55111 30.1427 2.11562 29.9571 1.72195 29.704C0.982176 28.9785 0.790063 27.8704 1.2427 26.9443L1.38343 26.7006C3.32705 23.2847 3.71882 22.3661 3.79107 22.1185C3.65605 21.8261 3.47728 21.558 3.25855 21.3199C3.15966 21.1961 3.06837 21.0799 2.9923 20.9749C2.37993 20.1312 2.72225 12.7255 2.72605 12.6468C2.79832 11.3157 3.89752 9.37716 5.98568 6.89127C10.3445 1.67566 15.7305 0.824231 19.4998 1.02677C24.2124 1.28549 28.248 3.25028 30.4691 4.97886C35.3224 8.79595 36.6156 15.0727 36.2354 19.6696C36.0604 21.7282 34.5809 25.4401 33.2724 28.7176C32.4242 30.8511 31.5418 33.0559 31.5114 33.6822C31.4505 34.9496 31.713 37.1469 32.3634 37.9718C32.6791 38.373 33.6071 38.8904 34.4249 39.3479C35.76 40.0978 36.8135 40.679 36.9809 41.5151C37.0741 41.9182 36.8173 42.3213 36.4085 42.4132C35.9996 42.505 35.5907 42.2519 35.4975 41.8488C35.3225 41.5714 34.2956 40.9977 33.6756 40.6527C32.641 40.0753 31.6635 39.5278 31.1614 38.8904C30.0584 37.4956 29.9443 34.6046 29.9938 33.6109C30.0318 32.7785 30.6936 31.0875 31.8575 28.1664C33.0632 25.1442 34.5618 21.3833 34.7216 19.5422C34.8433 18.0874 35.178 10.6031 29.5219 6.15258C25.5853 3.0404 14.4407 -0.851799 7.13787 7.84737C5.3426 9.99966 4.2852 11.7695 4.22434 12.7333C4.12164 14.5743 4.08361 19.3474 4.26618 20.1763C4.31562 20.2438 4.37268 20.3113 4.42973 20.3825C4.81009 20.8625 5.29692 21.4549 5.29692 22.1523C5.29692 22.5273 5.09913 23.206 2.69147 27.4356L2.55454 27.6756C2.47087 27.9699 2.52221 28.2849 2.69527 28.538C2.9444 28.6411 3.19732 28.7311 3.45598 28.808C4.43349 29.123 5.14093 29.3479 5.25126 30.0154C5.2988 30.6959 5.19611 31.3802 4.95077 32.0177C5.11433 32.1526 5.37297 32.3289 5.51367 32.4264C5.72287 32.5576 5.91875 32.7076 6.09941 32.8726C6.29529 33.0544 6.4056 33.3075 6.40369 33.5737C6.38277 33.8849 6.22493 34.1699 5.97389 34.3574L5.88261 34.4436L5.90543 34.4849C6.10512 34.7736 6.26867 35.0867 6.39228 35.4148C6.57866 35.9659 6.46455 36.8134 6.29339 38.0995L6.20591 38.7594C6.13364 39.3181 7.03507 40.0305 7.88707 40.3193C9.38945 40.3661 10.8919 40.2593 12.3714 39.9968C12.573 39.8637 12.8241 39.8243 13.056 39.8918C13.3832 39.9856 13.7559 40.0943 14.8855 43.0865C15.5112 44.7232 16.0285 46.3992 16.4336 48.1034C16.523 48.5064 16.2643 48.9058 15.8555 48.9958C15.8022 49.0014 15.749 49.0014 15.6957 48.9958L15.6964 48.9959ZM13.3269 41.1217C13.2451 41.1929 13.1519 41.251 13.0492 41.2904C13.1538 41.2567 13.2489 41.1985 13.3269 41.1217Z" fill="#0099A9" stroke="#0099A9" stroke-width="0.3"/>
<path d="M17.598 27.2485C16.4418 27.2466 15.2931 27.0366 14.2129 26.6298C13.8192 26.4835 13.6234 26.0505 13.7717 25.6624C13.92 25.2743 14.3593 25.0812 14.753 25.2274C16.7327 25.9717 18.9293 25.9099 20.8635 25.0549C22.7957 24.2019 24.3057 22.6271 25.0607 20.6754C25.209 20.2873 25.6483 20.0942 26.042 20.2405C26.4357 20.3867 26.6315 20.8198 26.4832 21.2078C25.7948 22.9814 24.5757 24.5075 22.9897 25.5855C21.4055 26.6635 19.5246 27.2447 17.5982 27.2484L17.598 27.2485Z" fill="#0099A9" stroke="#0099A9" stroke-width="0.3"/>
<path d="M9.42417 15.557C9.33098 15.557 9.2397 15.5402 9.15412 15.5083C8.96584 15.4371 8.8137 15.2964 8.73003 15.1146C8.64825 14.9327 8.64064 14.7265 8.71291 14.5409C9.61057 12.218 11.4058 10.3413 13.7071 9.3253C16.0063 8.30728 18.6233 8.23231 20.9797 9.11532C21.3733 9.26155 21.5692 9.69462 21.4209 10.0827C21.2726 10.4708 20.8333 10.6639 20.4396 10.5177C18.4598 9.77522 16.2633 9.83896 14.331 10.692C12.3988 11.5469 10.8888 13.1218 10.1357 15.0734C10.0235 15.364 9.74015 15.5571 9.42447 15.5571L9.42417 15.557Z" fill="#0099A9" stroke="#0099A9" stroke-width="0.3"/>
<path d="M17.5981 24.0308H17.3394C16.9192 24.014 16.592 23.6652 16.6092 23.2509C16.6263 22.8366 16.98 22.5141 17.4003 22.531C18.6517 22.5816 19.8726 22.141 20.795 21.303C21.7173 20.4668 22.2631 19.3026 22.3145 18.0689C22.3316 17.6546 22.6854 17.3321 23.1056 17.349C23.5259 17.3659 23.8531 17.7146 23.8359 18.1289C23.6933 21.4248 20.9452 24.0251 17.5984 24.0309L17.5981 24.0308Z" fill="#0099A9" stroke="#0099A9" stroke-width="0.3"/>
<path d="M12.1211 18.4032H12.0869C11.6685 18.3844 11.3433 18.0357 11.3604 17.6233C11.5049 14.228 14.4089 11.5903 17.8531 11.7252C18.2734 11.742 18.6005 12.0908 18.5834 12.5051C18.5662 12.9194 18.2125 13.2419 17.7922 13.225C15.1868 13.1238 12.9883 15.1185 12.8779 17.687C12.8589 18.0864 12.5261 18.4014 12.121 18.4032L12.1211 18.4032Z" fill="#0099A9" stroke="#0099A9" stroke-width="0.3"/>
<path d="M17.598 20.8738H17.4687C15.8408 20.8381 14.5457 19.5183 14.5628 17.9134C14.5799 16.3086 15.9054 15.0168 17.5334 15.0168C19.1613 15.0168 20.4868 16.3086 20.504 17.9134C20.5211 19.5183 19.226 20.8381 17.598 20.8738H17.598ZM17.598 16.3742C16.8031 16.3911 16.1717 17.0342 16.1793 17.8178C16.1869 18.6015 16.8335 19.2314 17.6285 19.2314C18.4234 19.2314 19.07 18.6015 19.0776 17.8178C19.0852 17.0342 18.4539 16.3911 17.6589 16.3742H17.598Z" fill="#0099A9" stroke="#0099A9" stroke-width="0.3"/>
</svg>
