<svg width="30" height="30" viewBox="0 0 30 30" fill="none" xmlns="http://www.w3.org/2000/svg">
<path fill-rule="evenodd" clip-rule="evenodd" d="M3 0H27C28.6569 0 30 1.34315 30 3V27C30 28.6569 28.6569 30 27 30H3C1.34315 30 0 28.6569 0 27V3C0 1.34315 1.34315 0 3 0ZM24 4.5C24.75 4.5 25.5 5.25 25.5 6C25.5 6.75 24.75 7.5 24 7.5C23.25 7.5 22.5 6.75 22.5 6C22.5 5.25 23.25 4.5 24 4.5ZM22.5 15C22.5 10.8638 19.1362 7.5 15 7.5C10.8638 7.5 7.5 10.8638 7.5 15C7.5 19.1362 10.8638 22.5 15 22.5C19.1362 22.5 22.5 19.1362 22.5 15ZM15 10.5C12.5147 10.5 10.5 12.5147 10.5 15C10.5 17.4853 12.5147 19.5 15 19.5C17.4853 19.5 19.5 17.4853 19.5 15C19.5 12.5147 17.4853 10.5 15 10.5Z" fill="#0099A9"/>
</svg>
