<svg width="52" height="50" viewBox="0 0 52 50" fill="none" xmlns="http://www.w3.org/2000/svg">
<path d="M48.4588 1C48.2966 1 48.1343 1.06489 48.0045 1.19468L38.7031 10.4098C38.4435 10.2367 38.1407 10.1502 37.8378 10.1502C37.3619 10.1502 36.9293 10.3232 36.6265 10.6693L34.2038 13.092L33.4251 12.3566C32.906 11.8374 32.1705 11.5346 31.435 11.5346C30.6995 11.5346 29.9641 11.8374 29.4449 12.3566L9.544 32.2575L7.25111 29.9646C6.99154 29.705 6.60216 29.705 6.34262 29.9646C6.08307 30.2242 6.08304 30.6135 6.34262 30.8731L10.7554 35.2859L4.39605 41.6452L2.10316 39.3956C1.84359 39.136 1.45422 39.136 1.19467 39.3956C0.935124 39.6552 0.935096 40.0445 1.19467 40.3041L9.71755 48.827C9.84733 48.9567 10.0204 49 10.1934 49C10.3665 49 10.5395 48.9567 10.6693 48.827C10.9289 48.5674 10.9289 48.178 10.6693 47.9185L8.37643 45.6256L14.7358 39.2662L19.1486 43.679C19.2784 43.8088 19.4514 43.8521 19.6244 43.8521C19.7975 43.8521 19.9705 43.8088 20.1003 43.679C20.3599 43.4194 20.3599 43.0301 20.1003 42.7705L17.8074 40.4776L37.7084 20.5767C38.2275 20.0576 38.5304 19.3221 38.5304 18.5866C38.5304 17.8511 38.2275 17.1157 37.7084 16.5965L36.9729 15.8611L39.3956 13.4384C39.958 12.876 40.0446 12.0107 39.6552 11.3618L48.9135 2.10353C49.173 1.84396 49.173 1.45458 48.9135 1.19504C48.7837 1.06525 48.6214 1.00036 48.4592 1.00036L48.4588 1ZM48.1776 9.45753C47.9613 9.45753 47.745 9.58732 47.6152 9.76037C47.6152 9.76037 46.923 10.8419 45.9712 12.3129C44.6733 14.3029 45.3222 15.644 46.0577 16.3795C46.6201 16.9419 47.3556 17.2448 48.1343 17.2448C48.913 17.2448 49.6485 16.9419 50.2109 16.3795C51.2059 15.3845 51.2492 13.8271 50.2974 12.3129L48.6534 9.76037C48.6102 9.54406 48.3938 9.45753 48.1775 9.45753H48.1776ZM48.1776 11.2745L49.2591 12.9618C49.4754 13.3511 50.1676 14.6058 49.3456 15.4277C48.8698 15.9036 48.1776 15.9901 47.5719 15.7738C47.8315 15.5142 47.8315 15.1248 47.5719 14.8653C47.3556 14.649 47.1393 14.4327 47.745 13.4377C47.918 13.1348 47.8315 12.7455 47.5719 12.5292C47.5286 12.4859 47.4854 12.4859 47.4421 12.4426C47.745 12.01 48.0045 11.5774 48.1776 11.2745L48.1776 11.2745ZM37.8378 11.4476C37.946 11.4476 38.0541 11.4908 38.1407 11.5774L38.4435 11.8802C38.6166 12.0532 38.6166 12.3128 38.4435 12.4859L36.0208 14.9518L35.1123 14.0433L37.535 11.5774C37.6215 11.4909 37.7297 11.4476 37.8378 11.4476L37.8378 11.4476ZM31.4176 12.8861C31.8134 12.8861 32.2136 13.0267 32.5164 13.3079L36.7561 17.5475C37.059 17.8504 37.1887 18.1965 37.1887 18.6291C37.1887 19.0184 37.0157 19.4078 36.7561 19.7106L27.8008 28.6228L22.4795 23.3015C22.2199 23.042 21.8305 23.042 21.571 23.3015C21.3114 23.5611 21.3114 23.9505 21.571 24.21L26.8923 29.5313L16.8554 39.5681L15.2547 37.9674C15.2547 37.9674 15.2115 37.9242 15.2115 37.8809C15.2115 37.8377 15.1682 37.8377 15.1249 37.8377L12.1831 34.8958C12.1831 34.8958 12.1398 34.8526 12.1398 34.8093C12.1398 34.766 12.0966 34.766 12.0533 34.766L10.4526 33.1654L13.1349 30.5264L14.5193 31.9108C14.6491 32.0405 14.8222 32.0838 14.9952 32.0838C15.1682 32.0838 15.3413 32.0405 15.4711 31.9108C15.7307 31.6512 15.7307 31.2618 15.4711 31.0023L14.0867 29.6179L16.8122 26.8923L18.1966 28.2767C18.3264 28.4065 18.4995 28.4498 18.6725 28.4498C18.8456 28.4498 19.0186 28.4065 19.1484 28.2767C19.408 28.0172 19.408 27.6278 19.1484 27.3682L17.764 25.9838L24.2103 19.5376L25.5947 20.9219C25.7245 21.0517 25.8975 21.095 26.0706 21.095C26.2436 21.095 26.4167 21.0517 26.5465 20.9219C26.806 20.6624 26.806 20.273 26.5465 20.0135L25.1621 18.6291L27.8876 15.9035L29.272 17.2879C29.4018 17.4177 29.5748 17.461 29.7479 17.461C29.9209 17.461 30.094 17.4177 30.2238 17.2879C30.4833 17.0283 30.4833 16.639 30.2238 16.3794L28.7096 14.9518L30.3536 13.3078C30.6348 13.0266 31.0241 12.886 31.4178 12.886L31.4176 12.8861ZM11.6639 36.2369L13.7838 38.3567L7.42444 44.7161L5.3046 42.5962L11.6639 36.2369Z" fill="#0099A9" stroke="#0099A9" stroke-width="0.5"/>
</svg>
