<svg width="48" height="44" viewBox="0 0 48 44" fill="none" xmlns="http://www.w3.org/2000/svg">
<g clip-path="url(#clip0_23_481)">
<path d="M43.8748 21.0001C43.9911 21.0001 44.1054 20.9738 44.2104 20.9213L45.7104 20.1713C45.8886 20.0813 46.0236 19.9257 46.0873 19.7382C46.1492 19.5488 46.1342 19.3426 46.0461 19.1645C45.9561 18.9864 45.8004 18.8514 45.6129 18.7876C45.4236 18.7257 45.2173 18.7407 45.0392 18.8289L43.5392 19.5788C43.228 19.7345 43.0648 20.0851 43.1455 20.4226C43.2242 20.762 43.528 21.0001 43.8748 21.0001L43.8748 21.0001Z" fill="#0099A9"/>
<path d="M45.7103 26.329L44.2103 25.579C43.839 25.3934 43.3891 25.5453 43.2034 25.9147C43.0178 26.2859 43.1678 26.7359 43.539 26.9215L45.039 27.6715C45.2171 27.7597 45.4234 27.7747 45.6128 27.7128C45.8003 27.649 45.9559 27.514 46.0459 27.3359C46.134 27.1578 46.149 26.9515 46.0871 26.764C46.0234 26.5747 45.8884 26.419 45.7103 26.329L45.7103 26.329Z" fill="#0099A9"/>
<path d="M45.7497 22.5H43.8748C43.4604 22.5 43.1248 22.8356 43.1248 23.25C43.1248 23.6644 43.4604 24 43.8748 24H45.7497C46.1641 24 46.4997 23.6644 46.4997 23.25C46.4997 22.8356 46.1641 22.5 45.7497 22.5Z" fill="#0099A9"/>
<path d="M26.4955 28.1722C27.0712 26.6328 27.7237 24.8871 25.7568 23.2728C25.1437 22.6822 10.4942 7.97087 2.78061 0.221748C2.48999 -0.0726262 2.01372 -0.0726262 1.72125 0.219873C1.42688 0.510499 1.42688 0.986769 1.7175 1.27923C10.2485 9.85155 24.5885 24.2554 24.7911 24.4186C25.9011 25.3223 25.6986 26.0198 25.0911 27.6455C25.0292 27.8124 24.9655 27.9849 24.9017 28.1592C23.5199 32.0105 21.1048 44.6909 20.8124 47.1605V47.1624C20.7636 47.573 21.058 47.9461 21.4686 47.9949C21.4986 47.9987 21.5286 48.0005 21.5586 48.0005C21.9374 48.0005 22.2561 47.7155 22.3011 47.3387C22.5805 44.9743 24.9918 32.3463 26.3136 28.6676C26.3736 28.4989 26.4355 28.3339 26.4955 28.1726L26.4955 28.1722Z" fill="#0099A9"/>
<path d="M24.7386 0.253299C24.463 -0.0560757 23.9905 -0.0823269 23.6812 0.191422C23.3718 0.465171 23.3437 0.937678 23.6155 1.24704C28.7549 7.0464 38.7691 18.829 39.8885 21.9038C40.6197 23.912 39.4797 25.9557 38.3754 27.9322L38.1241 28.3822C37.7116 29.1265 32.4577 44.0234 31.4099 47.0009H31.4118C31.273 47.3928 31.4793 47.8202 31.8693 47.9571C32.2611 48.0959 32.6886 47.8896 32.8255 47.4996C35.3005 40.4739 39.103 29.7771 39.4366 29.1099L39.6841 28.6636C40.8934 26.498 42.2641 24.0436 41.2966 21.3907C39.8022 17.2825 25.3534 0.947465 24.7385 0.253865L24.7386 0.253299Z" fill="#0099A9"/>
<path d="M27.7632 16.9614C27.197 17.7508 26.3495 19.2339 26.5895 20.7958C26.7714 21.9827 27.5195 22.9577 28.8095 23.6964C29.3682 24.0095 30.0301 24.0789 30.6413 23.8858C31.1757 23.6739 31.7588 23.6102 32.3288 23.6983C32.7413 23.7996 33.1745 23.7771 33.5757 23.6364C34.4476 23.3664 35.1451 22.7064 35.462 21.8495C35.8632 20.6889 35.5182 19.1926 34.4345 17.3983C34.3764 17.3027 33.977 16.7777 33.977 16.7777L21.808 2.88406C21.5343 2.57093 21.0599 2.54093 20.7487 2.81281C20.4374 3.08656 20.4056 3.56093 20.6793 3.87217L33.0187 17.9626C34.1924 19.8226 34.2262 20.8351 34.0443 21.3601C33.8812 21.8344 33.208 22.3688 32.6831 22.2413C31.8374 22.0857 30.9656 22.1625 30.1612 22.4644C29.9587 22.5282 29.7374 22.5038 29.5537 22.395C28.6687 21.8888 28.1831 21.2925 28.0725 20.5725C27.8343 19.0463 29.3156 17.4113 29.3287 17.3963C29.6081 17.0944 29.5931 16.6219 29.2931 16.3407L12.1389 0.204491C11.837 -0.0805085 11.3626 -0.0655085 11.0795 0.236367C10.7945 0.538244 10.8095 1.01262 11.1114 1.29573L27.7632 16.9614Z" fill="#0099A9"/>
<path d="M35.531 27.0413C34.4866 25.0707 32.1129 24.2213 30.0561 25.0857C29.1486 25.4963 28.4568 26.2726 28.153 27.2232C27.8755 28.2226 28.123 29.3251 28.888 30.4988L24.7724 47.0698C24.7236 47.263 24.7536 47.4673 24.8549 47.638C24.958 47.8105 25.1249 47.9324 25.318 47.9811C25.5111 48.0298 25.7174 47.998 25.888 47.8948C26.0586 47.7917 26.1805 47.6248 26.2274 47.4317L30.4236 30.5343C30.478 30.3224 30.4349 30.0955 30.3074 29.9174C29.6661 29.0211 29.428 28.2505 29.5986 27.6262H29.5967C29.7786 27.1143 30.1574 26.6962 30.6505 26.4636C31.9855 25.9218 33.5155 26.4711 34.2017 27.7368C34.8036 28.8842 34.4961 30.1574 33.1724 31.9893H33.1742C33.1274 32.0549 33.0917 32.1261 33.0674 32.2011L28.9273 45.2456C28.8017 45.6412 29.0211 46.0612 29.4148 46.1868C29.8105 46.3125 30.2323 46.0931 30.3579 45.6994L34.4605 32.7691C35.5686 31.2129 36.6505 29.1766 35.5311 27.0408L35.531 27.0413Z" fill="#0099A9"/>
</g>
<defs>
<clipPath id="clip0_23_481">
<rect width="48" height="48" fill="white"/>
</clipPath>
</defs>
</svg>
