<svg width="28" height="35" viewBox="0 0 28 35" fill="none" xmlns="http://www.w3.org/2000/svg">
<path fill-rule="evenodd" clip-rule="evenodd" d="M13.6111 35C4.53704 25.7522 0 18.6226 0 13.6111C0 6.0939 6.0939 0 13.6111 0C21.1283 0 27.2222 6.0939 27.2222 13.6111C27.2222 18.6226 22.6852 25.7522 13.6111 35ZM13.6111 30.9164C20.7407 23.3169 24.3056 17.5484 24.3056 13.6108C24.3056 7.70442 19.5175 2.91635 13.6111 2.91635C7.70473 2.91635 2.91667 7.70442 2.91667 13.6108C2.91667 17.5484 6.48148 23.3169 13.6111 30.9164ZM13.6111 16.5278C15.2219 16.5278 16.5278 15.2219 16.5278 13.6111C16.5278 12.0003 15.2219 10.6944 13.6111 10.6944C12.0003 10.6944 10.6944 12.0003 10.6944 13.6111C10.6944 15.2219 12.0003 16.5278 13.6111 16.5278Z" fill="#0099A9"/>
</svg>
