<svg width="50" height="50" viewBox="0 0 50 50" fill="none" xmlns="http://www.w3.org/2000/svg">
<path d="M18.6261 1.57356C18.6121 1.27106 18.8464 1.01465 19.1469 1.0006C19.4494 0.986579 19.7058 1.21896 19.7199 1.52145C19.7219 1.54749 20.2427 10.9148 12.5159 10.7609C12.1533 10.7529 11.7867 10.7789 11.4201 10.833C9.86558 11.0634 8.41914 11.8447 7.35339 13.0186C6.28765 14.1926 5.60248 15.7612 5.56643 17.5701C5.55842 17.9928 5.58646 18.4336 5.65458 18.8943C5.6686 18.9865 5.65859 19.0766 5.62854 19.1587C5.37812 20.0602 5.03758 21.0559 4.65895 22.1597C3.53909 25.4231 2.09271 29.6422 2.09271 33.8972C2.09271 34.4762 3.39288 36.0708 6.35175 38.3065C8.4873 39.9192 11.4502 41.8043 15.3625 43.7914L16.4883 41.6299C15.9054 40.8346 15.3685 39.9511 14.8316 39.0637C13.4854 36.842 12.1271 34.6003 10.0236 33.9234C9.73516 33.8312 9.5769 33.5227 9.66905 33.2342C9.69309 33.1601 9.73115 33.094 9.77923 33.0399C10.4503 32.1885 10.9331 31.5555 11.2937 30.4476C11.6723 29.2857 11.9368 27.5849 12.1671 24.5837C12.1892 24.2812 12.4536 24.0549 12.7561 24.0769C12.8422 24.0829 12.9224 24.109 12.9925 24.151C13.0105 24.161 19.3051 27.771 20.4185 33.9654C21.4062 39.4544 20.3925 41.8586 20.1621 42.313C20.0319 42.8238 19.1324 46.3637 18.7999 47.8943L38.2137 47.9103C38.3299 46.8786 38.5683 44.4987 38.39 43.9418C38.2558 43.5191 38.5482 42.0747 38.9469 40.1054C39.668 36.5535 40.7538 31.2008 40.3712 28.1335C39.7722 23.3456 38.9589 19.2028 38.9569 19.1905C38.8988 18.894 39.0931 18.6055 39.3896 18.5474C39.4196 18.5414 39.4477 18.5394 39.4777 18.5374C41.5772 18.3932 43.3562 17.9043 44.7744 17.1411C46.1748 16.3858 47.2245 15.3642 47.8856 14.1401V7.25872C46.5333 7.33284 45.5898 7.40897 44.8866 7.46506C43.344 7.58927 42.9374 7.62132 41.4189 7.37491C41.3848 7.3689 41.3528 7.36089 41.3207 7.34887V7.35087C40.0005 6.88009 38.5682 6.78592 37.236 6.90013C35.407 7.05438 33.7943 7.58724 32.9208 8.06003C32.8367 8.10611 32.7486 8.12614 32.6584 8.12614V8.12815C31.7088 8.12815 30.7392 7.65937 29.9139 6.95219C29.2888 6.41529 28.7399 5.73818 28.3493 5.02901C27.9446 4.29779 27.7022 3.52052 27.7022 2.81136C27.7022 2.20635 27.8745 1.64745 28.2632 1.19271C28.4595 0.962329 28.8061 0.936287 29.0364 1.13261C29.2668 1.32893 29.2928 1.67551 29.0965 1.90588C28.8922 2.14427 28.8 2.45878 28.8 2.81136C28.8 3.33221 28.9903 3.92522 29.3089 4.50217C29.6394 5.10117 30.1002 5.67008 30.625 6.12082C31.2241 6.63366 31.8972 6.98625 32.5342 7.0263C33.5359 6.51546 35.2467 5.96455 37.1438 5.80429C38.5982 5.68209 40.1749 5.78426 41.6473 6.30111C42.9815 6.51346 43.3721 6.48341 44.8004 6.36922C45.5677 6.30712 46.6335 6.22098 48.3643 6.13483C48.3864 6.13283 48.4104 6.13083 48.4344 6.13083C48.7369 6.13083 48.9833 6.37723 48.9833 6.67973V14.2724H48.9813C48.9813 14.3566 48.9613 14.4427 48.9212 14.5228C48.164 15.9953 46.938 17.2193 45.2933 18.1048C43.8789 18.866 42.1541 19.3769 40.1489 19.5792C40.3953 20.9054 40.9963 24.2609 41.4631 27.9991C41.8677 31.2285 40.7579 36.6914 40.0227 40.3177C39.6561 42.1247 39.3876 43.4509 39.4357 43.6031C39.7402 44.5567 39.2534 48.5092 39.2514 48.5192H39.2494C39.2174 48.7897 38.985 49 38.7065 49L18.1865 48.984C18.1504 48.986 18.1124 48.986 18.0743 48.982C17.7738 48.9459 17.5594 48.6715 17.5955 48.371C17.6997 47.5336 19.114 41.9922 19.118 41.9783C19.1301 41.9282 19.1501 41.8802 19.1781 41.8341C19.1821 41.8281 20.3761 39.8909 19.3464 34.1552C18.5491 29.7239 14.8109 26.7031 13.1943 25.5809C12.9719 28.1211 12.7095 29.6657 12.3449 30.7853C12.0124 31.807 11.6037 32.4601 11.0748 33.1632C13.1443 34.1589 14.4644 36.3365 15.7746 38.4958C16.3495 39.4454 16.9225 40.3909 17.5536 41.2123C17.6998 41.3786 17.7379 41.623 17.6297 41.8293L16.0951 44.7762H16.0931C15.9549 45.0406 15.6304 45.1468 15.3639 45.0126C11.1329 42.8971 7.95944 40.8898 5.69778 39.181C2.43438 36.7149 1 34.7396 1 33.8961C1 29.4588 2.48044 25.1418 3.62634 21.8022C3.99695 20.7204 4.33351 19.7408 4.55988 18.9394C4.49577 18.4687 4.46973 18.0039 4.47974 17.5472C4.52181 15.4557 5.31512 13.6407 6.55118 12.2787C7.7852 10.9185 9.462 10.0129 11.269 9.74451C11.6837 9.68241 12.1103 9.65636 12.5451 9.66437C19.088 9.79459 18.6351 1.59524 18.6331 1.57114L18.6261 1.57356ZM28.9292 28.7242C30.7241 28.7242 32.3508 29.4514 33.5267 30.6293C34.7027 31.8053 35.4319 33.4319 35.4319 35.2269C35.4319 37.0218 34.7047 38.6485 33.5267 39.8245C32.8156 40.5356 31.9401 41.0825 30.9625 41.405C30.8984 42.1703 30.7882 42.9255 30.6199 43.6668C30.5538 43.9613 30.2614 44.1476 29.9649 44.0815C29.6704 44.0154 29.4841 43.7229 29.5502 43.4264C29.6804 42.8495 29.7746 42.2605 29.8367 41.6655C29.5402 41.7076 29.2377 41.7276 28.9292 41.7276C27.1342 41.7276 25.5075 41.0004 24.3316 39.8225C23.1557 38.6465 22.4265 37.0199 22.4265 35.2249C22.4265 33.43 23.1537 31.8033 24.3316 30.6274C25.2151 29.7439 26.349 29.1149 27.6211 28.8544C26.4632 25.7493 25.1129 23.0147 24.1534 21.0976C21.6512 16.0934 23.1778 11.1674 23.1818 11.153C23.2679 10.8625 23.5744 10.6983 23.8649 10.7844C24.1553 10.8705 24.3196 11.1771 24.2335 11.4675C24.2295 11.4795 22.8272 16.003 25.131 20.6085C26.1306 22.6078 27.5489 25.4806 28.743 28.7258C28.8051 28.7238 28.8672 28.7238 28.9293 28.7238L28.9292 28.7242ZM32.7495 31.4046C31.8159 30.4711 30.5438 29.8781 29.1335 29.826C29.2477 30.1586 29.3579 30.4932 29.464 30.8317C29.5101 30.9779 29.5562 31.1262 29.6003 31.2744C30.4376 31.4166 31.1869 31.8173 31.7618 32.3923C32.487 33.1175 32.9358 34.1191 32.9358 35.2249C32.9358 36.3307 32.487 37.3324 31.7618 38.0576C31.5314 38.288 31.275 38.4883 30.9945 38.6586C31.0226 39.1774 31.0306 39.6943 31.0206 40.2071C31.6716 39.9327 32.2567 39.536 32.7474 39.0452C33.725 38.0676 34.33 36.7174 34.33 35.2249C34.33 33.7325 33.725 32.3822 32.7474 31.4046L32.7495 31.4046ZM27.9976 29.9021C26.8798 30.0965 25.8781 30.6354 25.1089 31.4046C24.1313 32.3822 23.5263 33.7325 23.5263 35.2249C23.5263 36.7174 24.1313 38.0676 25.1089 39.0452C26.0865 40.0228 27.4367 40.6278 28.9292 40.6278C29.2657 40.6278 29.5963 40.5978 29.9168 40.5377C29.9348 40.0649 29.9348 39.5881 29.9188 39.1093C29.6023 39.1894 29.2718 39.2315 28.9292 39.2315C27.8234 39.2315 26.8217 38.7828 26.0965 38.0575C25.3713 37.3323 24.9226 36.3307 24.9226 35.2249C24.9226 34.1191 25.3713 33.1174 26.0965 32.3922C26.7135 31.7752 27.5309 31.3585 28.4444 31.2483L28.4183 31.1642C28.2841 30.7395 28.1439 30.3188 27.9996 29.9041L27.9976 29.9021ZM31.245 32.9091C30.8583 32.5225 30.3776 32.232 29.8367 32.0777C30.041 32.801 30.2253 33.5341 30.3856 34.2713C30.5639 34.5458 30.668 34.8723 30.668 35.2229C30.668 35.3371 30.658 35.4493 30.636 35.5575C30.7662 36.3067 30.8684 37.06 30.9345 37.8112C31.0426 37.7271 31.1468 37.6369 31.243 37.5387C31.8359 36.9458 32.2026 36.1284 32.2026 35.2229C32.2026 34.3194 31.836 33.5001 31.243 32.9071L31.245 32.9091ZM28.6607 31.9615C27.8634 32.0256 27.1482 32.3762 26.6153 32.9091C26.0224 33.5021 25.6557 34.3195 25.6557 35.2249C25.6557 36.1284 26.0223 36.9478 26.6153 37.5407C27.2083 38.1337 28.0256 38.5003 28.9311 38.5003C29.2617 38.5003 29.5802 38.4523 29.8807 38.3601C29.8447 37.8353 29.7886 37.3064 29.7184 36.7775C29.482 36.8977 29.2156 36.9658 28.9311 36.9658C28.4503 36.9658 28.0156 36.7715 27.7011 36.457C27.3866 36.1425 27.1923 35.7078 27.1923 35.227C27.1923 34.7462 27.3866 34.3114 27.7011 33.997C28.0156 33.6824 28.4503 33.4881 28.9311 33.4881C28.9812 33.4881 29.0293 33.4901 29.0774 33.4941C28.9492 32.9813 28.8109 32.4704 28.6607 31.9656L28.6607 31.9615ZM29.2156 34.069C29.1234 34.047 29.0293 34.035 28.9291 34.035C28.6006 34.035 28.3021 34.1692 28.0878 34.3835C27.8714 34.5999 27.7392 34.8964 27.7392 35.2249C27.7392 35.5535 27.8714 35.852 28.0878 36.0663C28.3041 36.2827 28.6006 36.4149 28.9291 36.4149C29.1916 36.4149 29.434 36.3307 29.6303 36.1865C29.5181 35.4773 29.3779 34.7702 29.2156 34.067L29.2156 34.069ZM27.9335 21.6704C27.6851 21.4982 27.623 21.1576 27.7932 20.9092C27.9655 20.6608 28.3061 20.5987 28.5545 20.7689C29.8767 21.6845 31.2049 22.4076 32.4429 22.4617C33.6149 22.5138 34.7587 21.9389 35.8245 20.2881C35.9888 20.0337 36.3274 19.9596 36.5818 20.1239C36.8362 20.2881 36.9103 20.6267 36.7461 20.8811C35.4319 22.9185 33.9495 23.6257 32.3949 23.5555C30.9044 23.4894 29.4 22.6861 27.9315 21.6684L27.9335 21.6704ZM17.0914 23.7639C16.865 23.5615 16.845 23.215 17.0473 22.9886C17.2496 22.7622 17.5962 22.7422 17.8226 22.9445C18.4556 23.5075 19.1588 23.852 19.8239 23.8801C20.3888 23.9041 20.9417 23.6878 21.4105 23.1689C21.6128 22.9445 21.9594 22.9245 22.1858 23.1288C22.4102 23.3312 22.4302 23.6777 22.2258 23.9041C21.5187 24.6894 20.6653 25.014 19.7798 24.9759C18.8503 24.9378 17.9068 24.4911 17.0914 23.7659L17.0914 23.7639Z" fill="#0099A9" stroke="#0099A9" stroke-width="0.3"/>
</svg>
