<svg width="51" height="50" viewBox="0 0 51 50" fill="none" xmlns="http://www.w3.org/2000/svg">
<path d="M48.3088 31.9868C48.1529 31.7407 37.8353 15.4962 37.786 15.418C38.9857 11.585 38.0936 7.24352 35.0932 4.23468C30.8132 -0.0761466 23.7766 -0.102817 19.4022 4.30236L11.8798 11.8557C11.8655 11.8639 11.8491 11.8701 11.8347 11.8865C11.8121 11.909 11.7896 11.9316 11.7752 11.9542C11.767 11.9624 11.767 11.9685 11.7609 11.9767L4.27525 19.4849C-0.0663381 23.8491 -0.0971036 30.9144 4.21578 35.2437C8.51432 39.5587 15.5403 39.5565 19.9068 35.176L22.4724 32.6043C23.99 34.9976 29.5149 43.7036 29.5685 43.7876C32.9072 49.0275 39.8267 50.5329 44.9209 47.3129C50.0438 44.0993 51.6473 37.2611 48.3088 31.9868ZM20.1981 5.09832C24.1069 1.17302 30.3907 1.12177 34.2973 5.03064C36.7418 7.48345 37.634 10.9265 36.9592 14.1197L36.8177 13.8941C33.5466 8.74033 26.6824 7.08308 21.4653 10.3687C19.2894 11.7346 17.7 13.767 16.9043 16.1748L13.0344 12.2906L20.1981 5.09832ZM19.1111 34.3798C15.1879 38.3195 8.87129 38.3236 5.01193 34.4475C1.14201 30.5633 1.17278 24.2014 5.07961 20.2806L12.2434 13.0884L16.5707 17.4383C15.9698 20.2889 16.5112 23.2134 18.0862 25.6967L21.8515 31.6299L19.1111 34.3798ZM19.0291 25.0876C16.0657 20.4425 17.4048 14.2346 22.0664 11.3244C26.7485 8.38149 32.9237 9.84785 35.8664 14.5053C43.3189 26.232 40.7473 22.1878 41.3029 23.0635L24.4715 33.6625C17.0105 21.9111 19.5848 25.9634 19.0291 25.0876ZM44.32 46.3569C39.6769 49.2814 33.4895 47.8561 30.5201 43.1761L25.0751 34.6121L41.9065 24.0132L47.3598 32.594C50.3315 37.2637 48.9733 43.4363 44.32 46.3569Z" fill="#0099A9"/>
<path fill-rule="evenodd" clip-rule="evenodd" d="M19.0477 3.94978C23.6162 -0.650556 30.9705 -0.626526 35.4473 3.88162C38.5277 6.97074 39.4799 11.3985 38.3308 15.3433L43.4295 23.3714C46.0344 27.4727 48.6531 31.5959 48.7312 31.7193L48.7988 31.826L48.7989 31.8279C52.1949 37.3197 50.5106 44.3959 45.1875 47.7359C39.8588 51.1037 32.6324 49.5265 29.1469 44.0563C29.0963 43.9771 24.2466 36.3351 22.3849 33.3999L20.2609 35.529C15.7011 40.1034 8.35761 40.1098 3.86156 35.5966C-0.648448 31.0694 -0.612081 23.6887 3.92079 19.1323L11.3696 11.661C11.372 11.6577 11.3746 11.6543 11.3772 11.651C11.417 11.5966 11.4601 11.5537 11.4761 11.5379C11.5087 11.5038 11.5412 11.4781 11.5693 11.4589L19.0477 3.94978C19.0478 3.94969 19.0476 3.94987 19.0477 3.94978ZM34.7384 4.58696C30.6551 0.474318 23.9371 0.445186 19.757 4.65467L12.1865 12.2564L12.1694 12.2661L12.1676 12.2689L12.164 12.2725C12.163 12.2739 12.1619 12.2753 12.1609 12.2767L12.1398 12.3048L4.62972 19.8375C4.62965 19.8376 4.6298 19.8375 4.62972 19.8375C0.47964 24.0095 0.454322 30.7595 4.57 34.8908C8.67103 39.0075 15.3795 39.0097 19.5527 34.823L22.5599 31.8086L22.8947 32.3365C24.4125 34.7302 29.937 43.4354 29.9901 43.5188C33.182 48.5282 39.7941 49.962 44.6537 46.8903L44.6552 46.8894C49.5423 43.8237 51.0776 37.2963 47.8864 32.2547L47.8189 32.1481C47.3535 31.4151 44.6249 27.1187 42.072 23.0991C39.65 19.2857 37.3862 15.7213 37.3631 15.6847L37.2398 15.4892L37.3088 15.2686C38.4562 11.6029 37.6011 7.4577 34.7392 4.58773L34.7384 4.58696ZM12.1013 12.3043C12.1004 12.3048 12.1004 12.3048 12.1013 12.3043V12.3043ZM33.9436 5.3841C30.2358 1.67416 24.2694 1.71852 20.5524 5.45113L13.7401 12.2905L16.7066 15.268C17.6036 13.0775 19.1545 11.2291 21.1989 9.94563C26.3573 6.69689 33.0478 8.07179 36.6483 12.7783C36.856 10.1157 35.95 7.39748 33.9436 5.3841ZM36.3948 14.1608C33.2672 9.23454 26.7093 7.657 21.7318 10.7918C19.654 12.096 18.1381 14.0347 17.379 16.3317L17.1239 17.1037L12.3286 12.2906L19.8438 4.74551C19.8438 4.74552 19.8438 4.7455 19.8438 4.74551C23.9445 0.627547 30.5455 0.569405 34.6509 4.67719C37.2207 7.25561 38.1563 10.8733 37.4484 14.223L37.1928 15.4329L36.3956 14.162C36.3953 14.1616 36.3951 14.1612 36.3948 14.1608ZM35.4437 14.7724C32.6454 10.3436 26.7768 8.95427 22.3325 11.7478L22.3312 11.7486C17.9108 14.5081 16.6333 20.4026 19.4506 24.8187L19.7003 25.2101L19.6986 25.2114C20.163 25.9433 21.4218 27.9263 24.6266 32.9739L40.6128 22.9072C40.1197 22.1307 38.7955 20.0466 35.4444 14.7735L35.4437 14.7724ZM41.7431 22.8241L41.9938 23.2193L24.3164 34.351L24.0494 33.9305C20.3189 28.0548 19.0971 26.13 18.7384 25.5647L18.6046 25.3537L18.6027 25.3506L18.6011 25.348L18.5995 25.3454L18.5952 25.3383C18.5951 25.338 18.5948 25.3375 18.5944 25.3368L18.3584 24.9648L18.366 24.9591C15.5762 20.1337 17.0308 13.8791 21.801 10.9007C26.7206 7.80893 33.2016 9.35223 36.2888 14.2378C40.0147 20.1005 41.2349 22.0212 41.5932 22.5856C41.645 22.6673 41.6792 22.7212 41.7005 22.7548C41.7156 22.7786 41.7241 22.7922 41.7277 22.798L41.7306 22.8025L41.7334 22.8072L41.7364 22.8123L41.7431 22.8241ZM40.945 23.2905C41.1162 23.3019 41.2581 23.2483 41.3695 23.1693C41.4983 23.078 41.5864 22.9528 41.6323 22.8545C41.6524 22.8116 41.6644 22.7739 41.6682 22.7463C41.5854 22.7253 41.3575 22.7026 41.1395 22.8041L41.3029 23.0635L40.945 23.2905ZM41.6418 22.6641C41.6403 22.6618 41.6406 22.6622 41.6418 22.6641V22.6641ZM12.2436 12.3797L17.1156 17.2771L17.0599 17.5414C16.4864 20.2621 17.0021 23.0537 18.5084 25.4288C18.5084 25.4288 18.5084 25.4288 18.5084 25.4288L22.488 31.6996L19.4654 34.7327C15.3491 38.8661 8.71489 38.875 4.65773 34.8004C0.590272 30.7179 0.627352 24.0404 4.72536 19.9277C4.72534 19.9277 4.72538 19.9277 4.72536 19.9277L12.2436 12.3797ZM12.2432 13.7972L5.43386 20.6334C1.71827 24.3623 1.69378 30.4087 5.36614 34.0946C9.02771 37.772 15.0267 37.7728 18.7568 34.027L21.2151 31.5602L17.6641 25.9646C16.0694 23.4504 15.488 20.4977 16.0284 17.6021L12.2432 13.7972ZM42.0614 23.3247L47.7817 32.3255C50.8998 37.2255 49.4783 43.7102 44.5863 46.7806L44.3616 46.9217L44.3578 46.92C39.5054 49.8063 33.1641 48.2765 30.0979 43.444L24.3838 34.4566L42.0614 23.3247ZM25.7665 34.7676L30.942 42.9078C33.7663 47.3591 39.6474 48.7091 44.0535 45.9339L44.1446 45.8765C48.4868 43.0829 49.7439 37.2716 46.938 32.8624L41.7516 24.7016L25.7665 34.7676Z" fill="#0099A9"/>
<path d="M28.2552 27.343L26.7194 28.3062L23 22.3761L24.5358 21.4129L28.2552 27.343Z" fill="#0099A9"/>
<path d="M32.5639 22.5918L31.456 17.0724L33.1659 16L34.2898 23.558L32.6875 24.563L26.3828 20.2544L28.0875 19.1852L32.5639 22.5918Z" fill="#0099A9"/>
</svg>
