<svg width="53" height="44" viewBox="0 0 53 44" fill="none" xmlns="http://www.w3.org/2000/svg">
<path d="M3.42167 15.2083C2.94677 15.424 2.52906 15.639 2.09326 15.807C1.17386 16.1602 0.648288 15.909 0.327586 14.9868C-0.248664 13.3275 -0.0351037 11.732 0.736607 10.1878C1.59085 8.47934 2.87221 7.12269 4.34975 5.95499C7.76164 3.25834 11.5912 1.40218 15.8443 0.486408C18.3984 -0.0637802 20.985 -0.203499 23.5658 0.361892C25.2916 0.739784 26.9219 1.36381 28.3075 2.48953C29.4897 3.44946 30.2998 4.71272 30.9839 6.05272C32.1864 8.40839 33.063 10.8908 33.4945 13.494C33.7197 14.8514 33.7088 16.2565 33.7095 17.6407C33.7102 19.5823 33.6827 21.5275 33.5546 23.464C33.3975 25.8392 34.2279 27.7975 35.7865 29.5219C36.9107 30.7656 37.9872 32.052 39.1144 33.2928C40.7411 35.0831 41.8277 37.1868 42.6617 39.4231C43.0765 40.5358 43.3501 41.7027 43.6462 42.8567C43.7924 43.4271 43.4558 43.8876 42.915 43.9853C42.4097 44.0765 41.9718 43.7362 41.8755 43.1709C41.5359 41.1858 40.7201 39.3782 39.8477 37.5836C39.0159 35.8715 37.7324 34.5155 36.4981 33.1118C35.654 32.1526 34.8179 31.1855 34.0107 30.1944C33.1463 29.1331 32.4079 27.99 32.0018 26.6109C31.883 26.7159 31.7882 26.8013 31.6919 26.8853C31.2467 27.2733 30.8066 27.6671 30.3534 28.0465C29.7576 28.5453 29.0423 28.8073 28.3112 29.0216C27.6003 29.2294 26.9198 29.0933 26.3804 28.6032C25.9396 28.2036 25.5103 27.7489 25.2171 27.2379C24.6423 26.2374 24.1652 25.1797 23.6476 24.1459C23.6157 24.0822 23.5868 24.0164 23.5347 23.9049C23.2567 24.2154 23.0091 24.5173 22.7347 24.7917C22.2395 25.2883 21.4541 25.1421 21.2203 24.5144C21.0689 24.1076 21.2275 23.7833 21.4859 23.4546C22.0354 22.756 22.5631 22.0386 23.067 21.3067C23.269 21.0128 23.408 20.6682 23.5376 20.3323C24.0501 19.0046 23.7685 17.7623 23.0373 16.6113C22.5284 15.8099 21.7183 15.71 20.9415 16.2725C20.3841 16.6757 20.1163 17.2613 20.0431 17.9071C19.9678 18.5731 19.9997 19.2522 19.9917 19.9254C19.9903 20.0695 20.0258 20.2128 20.0337 20.3569C20.0605 20.8195 19.8614 21.1402 19.4553 21.2958C19.0702 21.4442 18.664 21.3335 18.4049 20.9614C18.0053 20.388 17.6317 19.7958 17.248 19.2116C16.3989 17.9209 15.5815 16.6134 14.9749 15.1858C14.8764 14.9549 14.7266 14.7457 14.5956 14.5292C14.4616 14.3092 14.2951 14.2867 14.0816 14.4337C13.5958 14.7696 13.1086 15.1048 12.6105 15.4233C11.5927 16.0748 10.5481 16.6815 9.3818 17.0275C8.90111 17.1701 8.39436 17.27 7.89484 17.2932C6.85745 17.3417 6.0242 16.9131 5.4161 16.0625C5.3676 15.9945 5.31692 15.9279 5.26552 15.8613C5.25973 15.854 5.24453 15.854 5.18372 15.8367C5.14752 16.2326 5.09106 16.6192 5.0802 17.0072C5.05413 17.9107 5.04545 18.8142 5.03676 19.7177C5.03097 20.3504 5.39511 20.8238 5.72956 21.3132C6.01407 21.7295 6.31233 22.1457 6.52878 22.5982C6.82849 23.2251 6.74669 23.8955 6.5867 24.5499C6.28337 25.7914 5.96846 27.0294 5.65862 28.2695C5.6217 28.4186 5.58984 28.5699 5.54351 28.7711C6.06692 28.8052 6.54833 28.8971 6.99138 28.58C7.28602 28.3694 7.58355 28.1638 7.88688 27.9669C8.34802 27.6671 8.8736 27.754 9.16896 28.1681C9.46288 28.5807 9.36298 29.1085 8.92789 29.4437C8.88011 29.4806 8.83016 29.5139 8.78021 29.5479C8.10695 30.0054 8.10623 30.0062 8.38567 30.7829C8.48702 31.0646 8.59561 31.3433 8.69913 31.6198C9.17837 31.5662 9.63155 31.4757 10.0847 31.4765C10.648 31.4772 11.2155 31.5221 11.7722 31.6082C12.1943 31.6734 12.4534 31.9984 12.4962 32.3647C12.5439 32.7759 12.3825 33.1488 12.014 33.2877C11.7925 33.371 11.5246 33.3536 11.2792 33.3442C10.7906 33.3254 10.3026 33.2812 9.71481 33.2407C9.81761 33.4463 9.86611 33.5484 9.91823 33.649C10.2208 34.2245 10.3758 34.8362 10.3924 35.4871C10.4228 36.6678 10.9339 37.1521 12.0936 36.94C14.1018 36.5729 16.0796 36.0778 17.8243 34.9448C18.8414 34.2846 19.4937 33.3645 19.7442 32.1642C19.8629 31.5937 20.2676 31.2897 20.7613 31.3534C21.323 31.4265 21.6466 31.9282 21.5149 32.5334C21.2499 33.7576 20.6751 34.8116 19.7688 35.6796C19.692 35.7535 19.5994 35.8106 19.5139 35.8758C19.5248 35.9077 19.5357 35.9395 19.5465 35.9714C19.7898 35.9981 20.0381 36.0025 20.2755 36.0553C20.8612 36.1856 21.4664 36.2783 22.0202 36.4962C22.9164 36.8488 23.2719 37.5061 23.2118 38.466C23.2074 38.5334 23.2111 38.6021 23.2111 38.7035C23.5962 38.537 23.9386 38.3582 24.3013 38.2438C24.533 38.1707 24.803 38.1424 25.0412 38.183C25.3995 38.2445 25.6514 38.6065 25.6717 38.9742C25.6934 39.368 25.4922 39.7365 25.1208 39.8661C23.9922 40.2599 23.0026 40.9093 22.0108 41.5493C20.8967 42.2681 19.8108 43.0319 18.7126 43.7753C18.0596 44.2177 17.2871 43.9028 17.2169 43.1636C17.18 42.772 17.4022 42.5135 17.6759 42.2725C18.5077 41.5391 19.3576 40.8232 20.1488 40.0471C20.5825 39.6214 20.9343 39.1045 21.2782 38.5985C21.5156 38.2496 21.4519 38.0925 21.0284 38.0302C20.2082 37.9093 19.3807 37.8145 18.5533 37.7711C17.062 37.6921 15.5996 37.8449 14.1692 38.3321C13.514 38.5551 12.8118 38.6774 12.1212 38.752C10.1093 38.9706 8.74836 37.8724 8.61298 35.8671C8.56014 35.0795 8.34151 34.4077 7.87312 33.801C7.22738 32.9641 6.86541 31.9941 6.55267 31.0037C6.46291 30.7185 6.34129 30.6295 6.03144 30.6099C5.52179 30.5773 4.99477 30.5071 4.51987 30.3327C3.8734 30.0952 3.56935 29.5204 3.71052 28.8486C3.961 27.6585 4.26939 26.4799 4.55245 25.2963C4.65597 24.8626 4.7537 24.4275 4.85723 23.9939C4.95568 23.582 4.89632 23.2106 4.62557 22.8704C4.42287 22.6163 4.25274 22.3361 4.05439 22.0784C3.48755 21.3422 3.20449 20.5017 3.22476 19.5852C3.25444 18.2126 3.33769 16.8407 3.3985 15.4682C3.40285 15.3943 3.41153 15.3241 3.42167 15.2083ZM18.1812 17.3757C18.213 17.3656 18.2449 17.3555 18.276 17.3453C18.3231 17.1998 18.352 17.0456 18.4208 16.911C18.6829 16.3999 18.8863 15.8374 19.2417 15.4001C20.408 13.9667 23.046 13.2848 24.6169 15.6897C25.2518 16.6619 25.5414 17.7522 25.6029 18.9025C25.6543 19.8675 25.3677 20.7572 24.9572 21.6165C24.8631 21.8134 24.7053 21.998 24.8262 22.255C25.4321 23.5393 26.0141 24.8358 26.6396 26.1107C26.8112 26.4604 27.0826 26.7724 27.3541 27.0583C27.4728 27.1836 27.7422 27.295 27.884 27.2451C28.3452 27.0837 28.8476 26.9251 29.2103 26.6189C30.0551 25.9051 30.8319 25.1102 31.6231 24.3349C31.7122 24.248 31.7549 24.0786 31.7592 23.9454C31.8128 22.1139 31.8852 20.2816 31.8917 18.4493C31.8968 16.9805 31.9525 15.4921 31.7469 14.0456C31.398 11.5872 30.5496 9.25756 29.4419 7.0322C28.8809 5.90504 28.2424 4.81407 27.2687 3.99168C25.9533 2.88045 24.3722 2.33316 22.7036 2.02983C20.4594 1.62226 18.2282 1.82496 16.0217 2.29551C13.3938 2.85584 10.9578 3.92653 8.63325 5.25567C6.73945 6.33867 4.97305 7.59035 3.53677 9.25684C2.75565 10.1625 2.128 11.155 1.88766 12.3488C1.78558 12.8569 1.76749 13.3688 1.92747 13.9168C2.51965 13.5997 3.07708 13.292 3.64247 13.0003C4.80438 12.4016 5.63256 12.66 6.26527 13.8096C6.32898 13.9255 6.38038 14.0485 6.44191 14.1658C6.58163 14.4329 6.71194 14.7051 6.86686 14.9621C7.09128 15.3335 7.43587 15.5529 7.86589 15.4812C8.38422 15.3951 8.91124 15.2865 9.397 15.0932C10.6928 14.577 11.8323 13.78 12.9768 12.9959C14.1938 12.162 15.3369 12.3741 16.1477 13.6055C16.4705 14.0956 16.695 14.6494 16.9744 15.1685C17.3718 15.9054 17.7787 16.6395 18.1812 17.3757Z" fill="#0099A9"/>
<path d="M9.58231 20.3757C10.4438 20.4105 11.2944 20.4887 12.1074 20.779C12.7669 21.015 12.9464 21.7852 12.4759 22.2703C12.2131 22.5417 11.8888 22.5902 11.5434 22.4903C10.3374 22.1407 9.12841 22.1088 7.90931 22.4194C7.39966 22.549 6.92404 22.2862 6.78649 21.8221C6.6417 21.3335 6.89725 20.8535 7.41197 20.6877C7.67403 20.603 7.9455 20.5328 8.2177 20.4974C8.67088 20.4402 9.12768 20.4148 9.58231 20.3757Z" fill="#0099A9"/>
<path d="M23.2147 18.7569C23.1785 19.4772 22.8339 20.1338 22.3575 20.7202C22.0919 21.0467 21.5902 21.0669 21.2355 20.8338C20.8634 20.5891 20.72 20.1295 20.9068 19.724C20.9966 19.5279 21.124 19.3498 21.2275 19.1601C21.478 18.7011 21.47 18.5542 21.1269 18.1567C20.8713 17.8614 20.7454 17.5486 20.8909 17.1642C21.1131 16.5749 21.8522 16.3686 22.3148 16.795C22.8643 17.301 23.2038 17.9244 23.2147 18.7569Z" fill="#0099A9"/>
<path d="M9.44573 24.899C9.26548 24.899 9.08377 24.9135 8.90496 24.8961C8.40617 24.8483 8.06158 24.461 8.07099 23.9767C8.0804 23.5018 8.4554 23.1087 8.94695 23.0986C9.31832 23.0913 9.69404 23.1043 10.0625 23.1492C10.5403 23.2079 10.8538 23.614 10.827 24.0846C10.8017 24.5356 10.452 24.8867 9.98579 24.9192C9.80625 24.9316 9.62527 24.9214 9.44501 24.9214C9.44574 24.9142 9.44573 24.9069 9.44573 24.899Z" fill="#0099A9"/>
<path d="M43 26L40.5 30" stroke="#0099A9" stroke-width="2" stroke-linecap="round"/>
<path d="M49.1944 28.6651L45.3056 31.3348" stroke="#0099A9" stroke-width="2" stroke-linecap="round"/>
<path d="M51.724 37.4293L45 37.2375" stroke="#0099A9" stroke-width="2" stroke-linecap="round"/>
</svg>
