<svg width="40" height="40" viewBox="0 0 40 40" fill="none" xmlns="http://www.w3.org/2000/svg">
<path d="M38 20C38 10.0589 29.9411 2 20 2V5C28.2843 5 35 11.7157 35 20H38Z" fill="#0099A9"/>
<path fill-rule="evenodd" clip-rule="evenodd" d="M2.02599 10.7371C1.88066 12.6869 2.36255 14.5221 3.02801 16.3191C4.40483 20.0353 6.50066 23.3233 9.04012 26.3513C12.4745 30.4346 16.5744 33.6691 21.378 36.0013C23.5426 37.0488 25.7838 37.8594 28.2162 37.9894C29.8836 38.0811 31.2481 37.5516 32.5149 36.353C33.067 35.8307 33.6336 35.2476 34.2014 34.6633C34.486 34.3705 34.771 34.0773 35.0544 33.7914C36.3088 32.5297 36.3165 30.9928 35.0697 29.7387C33.5858 28.24 32.0942 26.7489 30.595 25.2655C29.3712 24.0497 27.8414 24.0574 26.6175 25.2655C26.2461 25.6337 25.9511 25.9171 25.6731 26.1841C25.2526 26.588 24.871 26.9545 24.323 27.5207C24.0706 27.7807 23.9424 27.8112 23.5505 27.666C23.1586 27.5207 22.3113 27.0695 21.73 26.7101C19.0299 25.0203 16.7658 22.8333 14.7618 20.3712C13.7674 19.1477 12.8801 17.8401 12.2682 16.372C12.1382 16.0738 12.1611 15.875 12.4059 15.6379C12.7172 15.337 12.9722 15.0931 13.208 14.8676C13.6791 14.4171 14.0734 14.0401 14.6851 13.4287C15.9625 12.144 15.9548 10.6377 14.6774 9.34541C14.1928 8.85587 13.7049 8.36974 13.218 7.88474L13.2141 7.88089C12.9722 7.6399 12.7306 7.3992 12.4898 7.15849C11.7403 6.40154 10.9906 5.64442 10.2334 4.90276C9.00953 3.70225 7.47208 3.69461 6.24824 4.90276C6.24824 4.90276 4.38516 6.67766 3.44871 7.67081C2.51225 8.66396 2.11778 9.53657 2.02599 10.7371ZM8.71567 7.62424C8.45423 7.36791 8.4257 7.33994 8.24374 7.33994C8.0579 7.33994 7.96355 7.42774 7.79184 7.58753C7.76417 7.61327 7.73447 7.64091 7.70209 7.67032C7.46866 7.88233 5.65655 9.69843 5.65655 9.69843C5.65655 9.69843 5.19568 10.1664 5.05233 10.6193C4.90899 11.0722 4.99829 12.1615 5.12224 12.7824C6.13323 17.8464 9.73288 22.8361 12.926 26.2078C16.1701 29.6332 20.7916 33.0062 26.2907 34.704C26.9884 34.9194 28.8147 35.098 29.3758 34.8849C29.9369 34.6718 30.4796 34.1614 30.4796 34.1614L32.0613 32.5489C32.0613 32.5489 32.5611 32.0983 32.5611 31.8219C32.5611 31.5456 32.4221 31.3668 32.2342 31.178C30.4464 29.3817 29.4613 28.388 29.2787 28.1969L29.2461 28.1627C28.9661 27.8693 28.8329 27.7297 28.594 27.7297C28.3639 27.7297 28.1359 27.97 27.9901 28.1236L27.9576 28.1577C26.0619 30.1343 25.4122 30.651 24.252 30.7431C22.3545 30.8936 18.6699 28.8404 14.7691 24.8843C10.8683 20.9282 8.98821 17.1306 9.19034 15.7266C9.38088 14.4031 10.1065 13.6975 10.3081 13.5015L10.3388 13.4714C10.4808 13.3288 12.0047 11.8705 12.0047 11.8705C12.0047 11.8705 12.3358 11.5732 12.3358 11.4013C12.3358 11.2413 12.2646 11.1703 12.1655 11.0715L12.1428 11.0488C10.243 9.13781 9.15811 8.05228 8.88812 7.79218C8.82106 7.72757 8.76421 7.67183 8.71567 7.62424Z" fill="#0099A9"/>
<path d="M20 8C26.6274 8 32 13.3726 32 20H29C29 15.0294 24.9706 11 20 11V8Z" fill="#0099A9"/>
</svg>
