<svg width="48" height="48" viewBox="0 0 48 48" fill="none" xmlns="http://www.w3.org/2000/svg">
<path d="M15.0407 7.30832C14.6556 7.12639 14.193 7.28897 14.0092 7.67606L4.212 28.3624C3.48231 29.9011 3.09717 31.6159 3.09717 33.3212C3.09717 33.7489 3.44362 34.0954 3.87136 34.0954C4.2991 34.0954 4.64555 33.7489 4.64555 33.3212C4.64555 31.8463 4.98038 30.3599 5.61134 29.0244L15.4085 8.34006C15.5924 7.95296 15.4278 7.49234 15.0407 7.30847L15.0407 7.30832Z" fill="#0099A9"/>
<path d="M5.13114 36.3872C5.13114 37.4188 3.58276 37.4188 3.58276 36.3872C3.58276 35.3556 5.13114 35.3556 5.13114 36.3872Z" fill="#0099A9"/>
<path d="M31.7419 15.4838C28.7671 15.4838 25.9859 16.3005 23.5838 17.7018L15.4104 0.443223C15.2807 0.172254 15.0078 0 14.7097 0C14.4116 0 14.1388 0.172259 14.009 0.443223L1.41291 27.0367C0.487752 28.9857 0 31.1612 0 33.3214C0 41.4156 6.58445 48 14.7406 48C17.7154 48 20.5739 47.1116 23.0186 45.4394C25.5425 47.0516 28.5308 48 31.7415 48C40.7068 48 47.9992 40.707 47.9992 31.7423C47.9992 22.7775 40.7063 15.4845 31.7415 15.4845L31.7419 15.4838ZM14.6785 46.4513C7.43806 46.4513 1.54828 40.5615 1.54828 33.3211C1.54828 31.3895 1.9857 29.4443 2.81215 27.6984L14.7096 2.58192L22.2737 18.5513C18.1705 21.5048 15.4841 26.3105 15.4841 31.7415C15.4841 36.8975 17.9034 41.4925 21.6603 44.4729C19.5835 45.7638 17.2029 46.4509 14.6789 46.4509L14.6785 46.4513ZM31.7419 46.4513C23.6304 46.4513 17.0321 39.8535 17.0321 31.7415C17.0321 23.6295 23.6299 17.0316 31.7419 17.0316C39.8539 17.0316 46.4518 23.6295 46.4518 31.7415C46.4518 39.8535 39.8539 46.4513 31.7419 46.4513Z" fill="#0099A9"/>
<path d="M38.7099 24.7741C38.7099 21.7857 35.5841 19.3545 31.7425 19.3545C27.9008 19.3545 24.775 21.7854 24.775 24.7741C24.775 27.7627 27.9008 30.1936 31.7425 30.1936C35.5841 30.1936 38.7099 27.7627 38.7099 24.7741ZM31.7425 28.645C28.7541 28.645 26.3229 26.9089 26.3229 24.7741C26.3229 22.6392 28.7538 20.9031 31.7425 20.9031C34.7311 20.9031 37.1621 22.6392 37.1621 24.7741C37.1621 26.9089 34.7311 28.645 31.7425 28.645Z" fill="#0099A9"/>
<path d="M33.8165 22.8892C32.5004 23.3344 30.985 23.3344 29.6688 22.8892C29.2643 22.7518 28.825 22.9705 28.6856 23.3731C28.5482 23.7776 28.7649 24.217 29.1694 24.3563C29.9881 24.6331 30.8552 24.7744 31.7417 24.7744C32.6282 24.7744 33.4952 24.6331 34.312 24.3563C34.7165 24.2189 34.9333 23.7796 34.7959 23.3731C34.6604 22.9705 34.221 22.7538 33.8165 22.8892H33.8165Z" fill="#0099A9"/>
<path d="M40.1843 33.3658C39.8204 33.1413 39.3443 33.2516 39.1179 33.6135C38.7501 34.2038 38.2837 34.7322 37.7282 35.189C37.1727 35.6458 36.5611 35.9999 35.9127 36.2438C35.5121 36.3948 35.3088 36.8399 35.4598 37.2406C35.5759 37.5503 35.8701 37.7419 36.1837 37.7419C36.2746 37.7419 36.3656 37.7264 36.4566 37.6935C37.2637 37.3896 38.0224 36.9522 38.7095 36.387C39.3966 35.8238 39.9772 35.1658 40.4321 34.4322C40.6585 34.0703 40.5482 33.5922 40.1843 33.3658L40.1843 33.3658Z" fill="#0099A9"/>
<path d="M43.9372 31.9144C43.1901 30.9525 42.0597 30.3506 40.7533 30.2208C38.9437 30.035 36.9811 30.7434 35.3649 32.1447C32.514 34.6144 31.6701 38.524 33.4837 40.8622C34.2307 41.8241 35.3611 42.426 36.6675 42.5557C36.8533 42.5751 37.0391 42.5828 37.2288 42.5828C38.8739 42.5828 40.6062 41.89 42.0559 40.6319C44.9049 38.1603 45.7507 34.2506 43.9372 31.9144V31.9144ZM41.0417 39.4606C39.7643 40.5677 38.1849 41.1463 36.8185 41.0128C35.9282 40.9257 35.1966 40.5444 34.705 39.9115C33.3889 38.2141 34.1379 35.2548 36.3772 33.3157C37.5346 32.3131 38.9359 31.7421 40.2037 31.7421C40.3372 31.7421 40.4708 31.7499 40.6004 31.7615C41.4908 31.8486 42.2223 32.2299 42.714 32.8628C44.0301 34.5602 43.281 37.5195 41.0417 39.4606L41.0417 39.4606Z" fill="#0099A9"/>
<path d="M24.3657 33.6153C24.1393 33.2514 23.6612 33.1411 23.2993 33.3676C22.9354 33.594 22.8251 34.0721 23.0515 34.434C23.5083 35.1656 24.087 35.8237 24.7741 36.3869C25.4612 36.952 26.2199 37.3895 27.029 37.6933C27.118 37.7262 27.2109 37.7417 27.3019 37.7417C27.6154 37.7417 27.9096 37.5501 28.0257 37.2404C28.1767 36.8398 27.9735 36.3927 27.5728 36.2437C26.9244 35.9998 26.3128 35.6456 25.7554 35.1888C25.1999 34.734 24.7315 34.2037 24.3657 33.6153L24.3657 33.6153Z" fill="#0099A9"/>
<path d="M28.1185 32.1447C26.5005 30.7434 24.534 30.037 22.7302 30.2208C21.4237 30.3486 20.2934 30.9505 19.5463 31.9144C17.7328 34.2505 18.5786 38.1599 21.4276 40.6319C22.8792 41.89 24.6095 42.5828 26.2547 42.5828C26.4424 42.5828 26.6302 42.5732 26.816 42.5557C28.1224 42.428 29.2527 41.8261 29.9998 40.8622C31.8153 38.5241 30.9695 34.6147 28.1185 32.1447V32.1447ZM28.7785 39.9119C28.2869 40.5447 27.5573 40.9261 26.665 41.0132C25.2947 41.1448 23.7192 40.568 22.4418 39.4609C20.2025 37.5216 19.4535 34.5622 20.7696 32.8651C21.2612 32.2322 21.9908 31.8509 22.8831 31.7638C23.0128 31.7502 23.1463 31.7425 23.2799 31.7425C24.5476 31.7425 25.9508 32.3134 27.1063 33.3141C29.3456 35.2554 30.0947 38.2147 28.7786 39.9119L28.7785 39.9119Z" fill="#0099A9"/>
</svg>
