<svg width="40" height="32" viewBox="0 0 40 32" fill="none" xmlns="http://www.w3.org/2000/svg">
<path d="M8.02813 25.0187C8.02813 25.3657 7.9017 25.5902 7.7385 25.7336C7.56567 25.8855 7.32017 25.9727 7.05752 25.9727C6.79488 25.9727 6.54938 25.8855 6.37655 25.7336C6.21334 25.5902 6.08691 25.3657 6.08691 25.0187C6.08691 24.6717 6.21334 24.4472 6.37655 24.3038C6.54938 24.1519 6.79488 24.0647 7.05752 24.0647C7.32017 24.0647 7.56567 24.1519 7.7385 24.3038C7.9017 24.4472 8.02813 24.6717 8.02813 25.0187Z" fill="#1D447B" stroke="#0099A9"/>
<path d="M32.4415 8.72743V9.22743H32.9415H34.0764C34.0765 9.22743 34.0765 9.22743 34.0766 9.22743C37.0707 9.22756 39.5 11.6361 39.5 14.5864V26.141C39.5 29.089 37.0707 31.5 34.074 31.5H5.92362C2.92952 31.5 0.5 29.0893 0.5 26.141V14.5864C0.5 11.6362 2.92923 9.22743 5.92362 9.22743H7.05875H7.55875V8.72743V0.5H32.4415V8.72743ZM9.99979 2.40914H9.49979V2.90914V13.9639V14.4639H9.99979H30.0001H30.5001V13.9639V2.90914V2.40914H30.0001H9.99979ZM7.55881 11.637V11.137H7.05881H5.92368C4.01204 11.137 2.4411 12.683 2.4411 14.587V26.1416C2.4411 28.0456 4.01204 29.5916 5.92368 29.5916H34.0764C35.9881 29.5916 37.559 28.0456 37.559 26.1416L37.5592 14.587C37.5592 12.683 35.9883 11.137 34.0767 11.137H32.9415H32.4415V11.637V16.3734H7.55881V11.637Z" fill="#0099A9" stroke="#0099A9"/>
</svg>
