<svg width="204" height="164" viewBox="0 0 204 164" fill="none" xmlns="http://www.w3.org/2000/svg">
<path opacity="0.2" d="M76.2857 38.5714V40.5714H78.2857V38.5714H76.2857ZM76.2857 2H78.2857V0H76.2857V2ZM47.4932 72.6525L45.4932 72.6525V72.6525H47.4932ZM47.4932 90H45.4932V92H47.4932V90ZM92 90H94V88H92V90ZM92 162V164H94V162H92ZM2 162H0V164H2V162ZM29.0436 14.7138L27.945 13.0425L27.945 13.0426L29.0436 14.7138ZM186.286 38.5714V40.5714H188.286V38.5714H186.286ZM186.286 2H188.286V0H186.286V2ZM157.493 72.6525L155.493 72.6525V72.6525H157.493ZM157.493 90H155.493V92H157.493V90ZM202 90H204V88H202V90ZM202 162V164H204V162H202ZM112 162H110V164H112V162ZM139.044 14.7138L137.945 13.0425L137.945 13.0426L139.044 14.7138ZM78.2857 38.5714V2H74.2857V38.5714H78.2857ZM49.4932 72.6526C49.4937 56.2989 53.9818 48.5248 59.1672 44.7012C64.4757 40.7867 71.0418 40.5714 76.2857 40.5714V36.5714C71.104 36.5714 63.2743 36.7027 56.7932 41.4818C50.189 46.3517 45.4937 55.6182 45.4932 72.6525L49.4932 72.6526ZM49.4932 90V72.6525H45.4932V90H49.4932ZM92 88H47.4932V92H92V88ZM94 162V90H90V162H94ZM2 164H92V160H2V164ZM0 90V162H4V90H0ZM0 72.6525V90H4V72.6525H0ZM27.945 13.0426C8.67707 25.709 0 45.9361 0 72.6525H4C4 46.8695 12.3058 28.1104 30.1423 16.385L27.945 13.0426ZM76.2857 0C56.7637 0 41.1609 4.35495 27.945 13.0425L30.1422 16.385C42.5937 8.19992 57.3989 4 76.2857 4V0ZM188.286 38.5714V2H184.286V38.5714H188.286ZM159.493 72.6526C159.494 56.2989 163.982 48.5248 169.167 44.7012C174.476 40.7867 181.042 40.5714 186.286 40.5714V36.5714C181.104 36.5714 173.274 36.7027 166.793 41.4818C160.189 46.3517 155.494 55.6182 155.493 72.6525L159.493 72.6526ZM159.493 90V72.6525H155.493V90H159.493ZM202 88H157.493V92H202V88ZM204 162V90H200V162H204ZM112 164H202V160H112V164ZM110 90V162H114V90H110ZM110 72.6525V90H114V72.6525H110ZM137.945 13.0426C118.677 25.709 110 45.9361 110 72.6525H114C114 46.8695 122.306 28.1104 140.142 16.385L137.945 13.0426ZM186.286 0C166.764 0 151.161 4.35495 137.945 13.0425L140.142 16.385C152.594 8.19992 167.399 4 186.286 4V0Z" fill="#304659"/>
</svg>
