<svg width="35" height="48" viewBox="0 0 35 48" fill="none" xmlns="http://www.w3.org/2000/svg">
<path d="M4.60554 11.9909C1.82765 12.6345 -0.103356 15.1613 0.00428477 18.0111C0.155737 22.1501 1.5965 26.1377 4.12529 29.4174L5.44049 31.1292L4.80281 35.4754L4.8048 35.4774C4.67926 36.3104 4.48397 37.1294 4.21895 37.9285L3.53546 39.981H3.53347C2.67061 42.5656 2.2302 45.2738 2.2302 48H3.8244C3.82839 47.2009 3.87422 46.4038 3.95991 45.6087H14.9836V48H16.5778V45.6087H27.6016C27.6873 46.4038 27.7331 47.2009 27.7371 48H29.3313C29.3273 45.7641 29.0264 43.5402 28.4365 41.3839L29.118 34.6265H29.12C29.126 34.5628 29.124 34.497 29.116 34.4332L28.5342 30.3979L28.0659 24.8042L30.8099 21.3926C30.8916 21.2889 30.9454 21.1654 30.9693 21.0359L31.6787 17.144C31.8082 17.3533 31.9477 17.5545 32.0573 17.7757H32.0553C32.8704 19.4058 33.2111 21.2311 33.0398 23.0445L31.7226 47.7386L33.3168 47.8243L34.634 23.1598C34.8273 21.0594 34.4307 18.9471 33.4862 17.062C33.1095 16.3127 32.6352 15.6153 32.0753 14.9895L32.1849 14.3877C32.3523 13.4711 32.0554 12.5305 31.3938 11.8729C30.7322 11.2172 29.7896 10.9283 28.8729 11.1037L28.7514 11.1276C28.1396 11.2491 27.5856 11.572 27.1771 12.0443C27.1452 12.0363 27.1133 12.0263 27.0815 12.0184L22.5977 10.9822H22.5958C21.8584 10.8108 21.3443 10.1452 21.3602 9.38795L21.2008 6.49048L21.4738 6.11584C22.7811 4.38416 23.3151 2.19012 22.9544 0.0517491L21.3782 0.294864C21.6791 2.0166 21.2486 3.78415 20.1925 5.17313L18.8733 6.97858H18.8713C17.592 8.72624 15.1389 9.10685 13.3893 7.8295L11.5799 6.51032C10.0873 5.4183 9.09489 3.77426 8.82391 1.94692L8.38749 0L6.83114 0.34873L7.25958 2.24586C7.57842 4.32429 8.66447 6.20744 10.3025 7.52688L10.2168 10.6953L4.60554 11.9909ZM5.04395 40.4871L5.72744 38.4346C6.02236 37.5478 6.24156 36.6351 6.37706 35.7105L6.79355 32.8888L7.25786 33.4946C7.7142 34.0844 8.41961 34.4292 9.16493 34.4252C9.52164 34.4272 9.87434 34.3455 10.1972 34.19L24.8679 27.1118L24.8061 27.3868C24.4315 29.0069 24.3518 30.6808 24.571 32.3288L24.9118 34.8954C25.0293 35.7663 25.2266 36.6212 25.5036 37.4541L26.516 40.4891C26.6415 40.8637 26.7391 41.2463 26.8448 41.627H4.71518C4.82079 41.2424 4.91844 40.8617 5.04398 40.4851L5.04395 40.4871ZM27.2215 37.5577L27.0182 36.948C26.7731 36.2126 26.5977 35.4554 26.4961 34.6862L26.1554 32.1195V32.1175C25.9601 30.6588 26.0318 29.1782 26.3626 27.7435L26.6177 26.6136L26.9485 30.5791L27.5244 34.5647L27.2215 37.5577ZM4.16752 44.0141C4.21335 43.7471 4.27513 43.482 4.32694 43.217H27.2314C27.2872 43.4821 27.349 43.7471 27.3909 44.0141H4.16752ZM15.6897 10.1813C15.9786 10.1813 16.2636 10.1594 16.5485 10.1155C17.7601 9.92822 18.8761 9.33839 19.713 8.44166L19.7668 9.43006C19.7608 10.9167 20.7871 12.2099 22.2379 12.5388L26.3828 13.4953L25.9225 14.6013C25.3765 14.0135 24.5255 13.8222 23.7823 14.123C23.4495 14.2585 23.1645 14.4837 22.9553 14.7746V13.7245H18.1726C17.8697 13.7225 17.5908 13.8938 17.4553 14.1649L16.6582 15.7591L18.085 16.4725L18.6649 15.3187H22.6843C22.5428 15.7471 22.5567 16.2094 22.7241 16.6279L24.2067 20.2726L23.4296 20.9382L12.1227 23.8676L11.778 22.2195L10.2176 22.5464L10.5763 24.2681L9.14949 24.6387L9.54804 26.1811L24.0076 22.4347C24.1252 22.4028 24.2348 22.347 24.3264 22.2673L25.6815 21.1076V21.1096C25.9425 20.8864 26.0302 20.5197 25.9007 20.2029L24.2009 16.0261H24.2029C24.1411 15.8587 24.2248 15.6753 24.3882 15.6076C24.5536 15.5398 24.7409 15.6156 24.8147 15.777L25.2391 16.8212C25.3607 17.1201 25.6496 17.3154 25.9724 17.3174C26.2973 17.3313 26.5962 17.136 26.7117 16.8292L28.1465 13.4235V13.4255C28.3059 13.0449 28.6447 12.7699 29.0492 12.6922L29.1728 12.6683C29.5733 12.5925 29.9838 12.7181 30.2728 13.0051C30.5617 13.292 30.6912 13.7045 30.6155 14.103L29.4398 20.5518L26.0441 24.7764L9.50015 32.7556C9.16138 32.919 8.75288 32.8213 8.52368 32.5224L5.39108 28.4452V28.4472C3.06155 25.4282 1.73635 21.7577 1.59688 17.9495C1.51717 15.8631 2.93203 14.0138 4.96465 13.5435L11.1782 12.1087C11.5309 12.027 11.786 11.7181 11.796 11.3554L11.8677 8.69513L12.4456 9.11759C13.3862 9.80909 14.522 10.1837 15.6898 10.1817L15.6897 10.1813Z" fill="#0099A9"/>
<path d="M8.60669 15.3186H12.8971L13.473 16.4724L14.8998 15.759L14.1027 14.1648C13.9672 13.8957 13.6922 13.7244 13.3893 13.7244H8.60674L8.60669 15.3186Z" fill="#0099A9"/>
<path d="M14.9799 35.2486L16.5741 35.2446L16.578 36.8368L14.9838 36.8408L14.9799 35.2486Z" fill="#0099A9"/>
</svg>
