<svg width="48" height="48" viewBox="0 0 48 48" fill="none" xmlns="http://www.w3.org/2000/svg">
<path d="M44.6405 36.2229C44.7773 35.9998 44.9048 35.7748 45.0248 35.5517C45.1842 35.2554 45.3455 34.9517 45.4974 34.6479C45.6342 34.376 45.7617 34.1042 45.8817 33.8323C46.0017 33.5604 46.1217 33.2885 46.2342 33.0092C46.3149 32.8085 46.3936 32.6098 46.4742 32.4017C46.6336 31.9704 46.7855 31.5373 46.9224 31.0986C46.9711 30.9542 47.003 30.8023 47.0499 30.6579C47.153 30.2979 47.2505 29.9304 47.3386 29.561C47.378 29.4016 47.4193 29.2329 47.4511 29.0735C47.5543 28.586 47.6518 28.0891 47.723 27.5941C47.7399 27.5135 47.7399 27.4348 47.7549 27.3541C47.8186 26.906 47.8674 26.4579 47.9068 26.0022C47.9143 25.8579 47.9311 25.7229 47.9386 25.5785C47.9761 25.0629 48.0005 24.536 48.0005 23.9997C48.0005 23.4485 47.9761 22.9028 47.9368 22.359C47.9293 22.2147 47.9124 22.0797 47.9049 21.9353C47.8561 21.4065 47.8018 20.8871 47.7286 20.3678C47.7211 20.3115 47.7118 20.2647 47.7043 20.2084C47.6236 19.7284 47.5355 19.2484 47.4324 18.7853C47.4005 18.6259 47.3611 18.4646 47.3199 18.3053C47.1999 17.8178 47.0724 17.3378 46.928 16.8578C46.8886 16.7378 46.8474 16.6178 46.808 16.4978C46.6805 16.1134 46.5436 15.7384 46.3992 15.3615C46.3355 15.1927 46.2624 15.0184 46.1986 14.8496C46.0149 14.4015 45.8217 13.9608 45.6061 13.5371C45.5348 13.3852 45.4542 13.2408 45.383 13.0964C45.2067 12.7533 45.023 12.4158 44.8392 12.0877C44.7586 11.9433 44.6705 11.7914 44.5823 11.647C44.3348 11.2308 44.0705 10.8314 43.7986 10.4301C43.7592 10.3664 43.7179 10.3026 43.6711 10.2389L42.4467 8.49509L42.4298 8.63947C38.5091 3.94251 32.8297 0.76832 26.4134 0.127032L26.4172 0.112031L25.6728 0.0632819H25.6334C25.4103 0.0464068 25.1928 0.0389067 24.9696 0.0239065C24.3134 -0.00796883 23.7303 -0.00796883 23.074 0.0239065C22.8509 0.0314066 22.6334 0.0482817 22.4103 0.0632819H22.3709L21.6002 0.112031V0.119531C15.184 0.7589 9.50454 3.9352 5.58385 8.63197L5.56697 8.48759L4.34444 10.2388C4.29569 10.3026 4.26382 10.3663 4.21694 10.4301C3.94506 10.8295 3.68068 11.2308 3.43319 11.647C3.34506 11.7914 3.26444 11.9433 3.17631 12.0876C2.98505 12.4158 2.79943 12.7589 2.63256 13.0964C2.55193 13.2483 2.4713 13.3908 2.40005 13.5352C2.19192 13.9664 1.9913 14.4071 1.80753 14.8477C1.74378 15.024 1.68003 15.2002 1.60878 15.3671C1.4644 15.744 1.3294 16.119 1.20002 16.5034C1.16065 16.6234 1.1119 16.7434 1.08002 16.8634C0.928144 17.3359 0.800645 17.8234 0.688141 18.3109C0.648765 18.4702 0.616889 18.6315 0.575637 18.7909C0.472512 19.2634 0.375009 19.734 0.303756 20.214C0.296257 20.2702 0.286881 20.3171 0.279381 20.3734C0.198754 20.8927 0.142502 21.414 0.103128 21.9409C0.0956274 22.0778 0.0787518 22.2203 0.0712522 22.3646C0.0243762 22.9028 0 23.4484 0 23.9996C0 24.5359 0.0243752 25.0628 0.056252 25.584C0.0637516 25.7284 0.0806272 25.8728 0.0881273 26.0078C0.127503 26.4634 0.176252 26.9116 0.240006 27.3597C0.247506 27.4403 0.256881 27.5191 0.271882 27.5997C0.343134 28.0966 0.440633 28.5916 0.543762 29.0791C0.575638 29.2384 0.615014 29.4072 0.656266 29.5666C0.74439 29.9341 0.840017 30.2941 0.945019 30.6635C0.984394 30.8079 1.02565 30.9597 1.07252 31.1041C1.2094 31.5447 1.36127 31.976 1.52065 32.4072C1.60127 32.6079 1.68002 32.816 1.76065 33.0147C1.87315 33.2941 1.99316 33.566 2.11316 33.8378C2.23316 34.1097 2.36066 34.3816 2.49754 34.6535C2.64942 34.9572 2.80129 35.261 2.97005 35.5572C3.09567 35.7766 3.22317 35.9997 3.36005 36.2229C3.48755 36.4385 3.61693 36.6466 3.75193 36.8547C3.86444 37.0235 3.96006 37.1979 4.07256 37.3666L5.25568 39.1273L5.27256 38.9754C9.20074 43.8806 15.0076 47.2238 21.6005 47.88V47.8875L22.3449 47.9362H22.3842C22.6074 47.9531 22.8399 47.9606 23.0724 47.9756C23.4005 47.9925 23.7117 48 24.0005 48C24.2893 48 24.6005 47.9925 24.9287 47.9756C25.1612 47.9681 25.3843 47.9512 25.6168 47.9362H25.6562L26.4006 47.8875V47.88C32.993 47.2237 38.8001 43.8881 42.7376 38.9754L42.7545 39.1273L43.9376 37.3666C44.0501 37.1979 44.1457 37.0235 44.2582 36.8547C44.3838 36.6485 44.5132 36.4404 44.6407 36.2229L44.6405 36.2229ZM46.3599 25.2711C46.3524 25.408 46.3355 25.5505 46.328 25.6873C46.3036 25.9667 46.2792 26.2555 46.2473 26.5348C46.2305 26.7036 46.208 26.863 46.1836 27.0317C46.1517 27.2886 46.1123 27.5361 46.0711 27.7836C46.0392 27.9599 46.0148 28.1361 45.9755 28.303C45.9267 28.543 45.8798 28.7755 45.8236 29.0155C45.7842 29.1918 45.743 29.368 45.7036 29.5443C45.6323 29.8162 45.5517 30.0806 45.4805 30.3524C45.3848 30.6731 45.2798 30.9918 45.1767 31.305C45.1205 31.4568 45.0736 31.6162 45.0173 31.7681C44.9292 32.0081 44.8336 32.2406 44.738 32.4712C44.6817 32.5987 44.6255 32.7356 44.5692 32.8631C44.4661 33.1106 44.3536 33.3506 44.2336 33.6C44.1848 33.6956 44.1379 33.7912 44.0892 33.8887C43.9936 34.0894 43.8886 34.2806 43.7854 34.4719C43.4011 30.8006 43.2004 26.7769 43.2004 22.6968C43.2004 19.4005 43.3279 16.1922 43.5773 13.1284C43.6017 13.1771 43.6335 13.2165 43.6579 13.2652C43.8342 13.5765 43.9935 13.8971 44.1548 14.2178C44.2505 14.409 44.3311 14.6021 44.4192 14.7934C44.5148 15.009 44.6105 15.2246 44.6986 15.4422C44.7792 15.6334 44.8505 15.8265 44.9217 16.0103C45.0023 16.2184 45.0736 16.4266 45.1542 16.6422C45.218 16.8334 45.2817 17.0191 45.3455 17.2103C45.4261 17.4672 45.5048 17.7297 45.578 17.9941C45.6267 18.1778 45.6811 18.3616 45.7298 18.5547C45.818 18.8978 45.8986 19.2503 45.9698 19.6029C46.0017 19.7622 46.0261 19.9235 46.058 20.0829C46.1067 20.3547 46.1536 20.6266 46.1855 20.8985C46.2098 21.0579 46.2248 21.2266 46.2492 21.386C46.2811 21.6747 46.313 21.9691 46.3298 22.2654C46.3373 22.4097 46.3542 22.5447 46.3617 22.6891C46.3842 23.1204 46.4011 23.5591 46.4011 23.9998C46.4011 24.4235 46.3842 24.8473 46.3598 25.271L46.3599 25.2711ZM26.2557 14.3999H21.7444L22.2807 11.1992H25.7289L26.2557 14.3999ZM26.2557 21.6H21.7444L22.2807 18.3993H25.7289L26.2557 21.6ZM27.857 28.8001H20.1433L20.6795 25.5994H27.3209L27.857 28.8001ZM26.5201 43.2003H21.48L21.1913 41.4565L20.9437 39.9996H27.0562L26.5201 43.2003ZM24.8007 46.3766C24.5363 46.3841 24.2719 46.401 24 46.401C23.7282 46.401 23.4638 46.3935 23.1994 46.3766V44.7997H24.7988L24.8007 46.3766ZM24.8007 38.4003H23.2013V37.5997H24.8007V38.4003ZM21.6 36.0003H20.0006V32.7996H27.9995V36.0003H21.6ZM24.8007 31.2002H23.2013V30.3996H24.8007V31.2002ZM24.8007 24.0001H23.2013V23.1995H24.8007V24.0001ZM24.8007 9.59992H23.2013V8.79927H24.8007V9.59992ZM24.8007 16.8H23.2013V15.9994H24.8007V16.8ZM22.4007 7.19989V3.99921H25.6013V7.19989H22.4007ZM24.8007 2.39982H23.2013L23.1994 1.61607C23.4638 1.60857 23.7282 1.59919 24.0001 1.59919C24.272 1.59919 24.5364 1.60669 24.8007 1.62357L24.8007 2.39982ZM4.79978 22.6969C4.79978 26.777 4.59915 30.8009 4.21666 34.4796C4.11354 34.2884 4.01604 34.0877 3.91291 33.8965C3.86416 33.8009 3.81728 33.7053 3.76854 33.6078C3.65604 33.3678 3.54541 33.1203 3.43291 32.8709C3.37665 32.7434 3.3204 32.614 3.27353 32.479C3.1779 32.2465 3.08227 32.0065 2.99415 31.7665C2.9379 31.6146 2.88165 31.4552 2.83477 31.3033C2.72227 30.9921 2.61915 30.6714 2.53102 30.3508C2.45039 30.0789 2.37164 29.8145 2.30789 29.5427C2.25915 29.3664 2.22727 29.1902 2.18789 29.0139C2.13164 28.7739 2.08477 28.5414 2.03601 28.3014C2.00414 28.1251 1.97226 27.9582 1.94039 27.782C1.90101 27.5345 1.85976 27.2776 1.82788 27.0301C1.80351 26.8707 1.77913 26.702 1.76413 26.5332C1.73226 26.2538 1.70788 25.9651 1.68351 25.6857C1.67601 25.5488 1.65913 25.4063 1.65163 25.2695C1.61601 24.8476 1.59913 24.4238 1.59913 24.0001C1.59913 23.5594 1.616 23.1282 1.6385 22.6875C1.646 22.5432 1.66288 22.4082 1.67038 22.2638C1.69475 21.9675 1.71913 21.6807 1.75101 21.3844C1.76788 21.225 1.79038 21.0563 1.81476 20.8969C1.85413 20.625 1.89538 20.3532 1.94226 20.0813C1.97413 19.9219 1.99851 19.7607 2.03038 19.6013C2.10163 19.2488 2.18226 18.8982 2.27038 18.5531C2.31913 18.3694 2.36601 18.1763 2.42226 17.9925C2.49351 17.7281 2.56664 17.4731 2.65477 17.2087C2.71852 17.0175 2.78227 16.8319 2.84602 16.6406C2.91727 16.4325 2.9979 16.2244 3.07852 16.0162C3.14977 15.825 3.2229 15.6318 3.30165 15.4406C3.38977 15.225 3.4854 15.0093 3.58103 14.8012C3.66915 14.61 3.75728 14.4093 3.8454 14.2181C4.00478 13.8975 4.16603 13.5787 4.34231 13.2656C4.36668 13.2168 4.39856 13.1775 4.42293 13.1287C4.67231 16.1925 4.79982 19.4005 4.79982 22.6972L4.79978 22.6969ZM5.56856 36.7035C6.11231 32.4247 6.39921 27.6002 6.39921 22.6969C6.39921 18.6094 6.19858 14.6568 5.82358 10.9367C9.44802 5.89667 15.1127 2.4243 21.6 1.7283V2.48018C21.1368 2.65643 20.7993 3.11206 20.7993 3.64083V4.57646L18.5905 4.02522C18.1668 3.9221 17.7261 4.1771 17.623 4.60834C17.5199 5.03959 17.7749 5.47273 18.2061 5.57584L20.7993 6.22274V7.55966C20.7993 8.08843 21.1349 8.53656 21.5999 8.72031V9.67284C21.1687 9.80972 20.8236 10.1697 20.7524 10.6497L20.5443 11.921L17.8011 11.2329C17.3774 11.1297 16.9367 11.3847 16.8336 11.816C16.7305 12.2472 16.9855 12.6804 17.4168 12.7835L20.2799 13.5035L20.1036 14.5666C20.0399 14.9266 20.143 15.2941 20.383 15.5754C20.608 15.8398 20.9605 15.9991 21.3205 15.9991H21.5999V16.8635C21.1686 17.0004 20.8236 17.3604 20.7524 17.8404L20.5443 19.1117L17.8011 18.4236C17.3774 18.3204 16.9367 18.5754 16.8336 19.0067C16.7305 19.4379 16.9855 19.8711 17.4167 19.9742L20.2799 20.6942L20.1036 21.7573C20.0399 22.1173 20.143 22.4848 20.383 22.7661C20.608 23.0398 20.9605 23.1992 21.3205 23.1992H21.5999V23.9999H20.3755C19.768 23.9999 19.2467 24.4405 19.1511 25.0405L18.9748 26.0887L17.8948 25.6574C17.4786 25.4886 17.0155 25.6893 16.8542 26.1055C16.6854 26.5143 16.886 26.9774 17.3023 27.1462L18.703 27.7068L18.4948 28.9556C18.4311 29.3156 18.5342 29.6831 18.7742 29.9644C19.0086 30.24 19.3592 30.3994 19.7192 30.3994H21.5999V31.2001H19.6405C18.9599 31.2001 18.3993 31.7607 18.3993 32.4394V33.3751L16.1905 32.8238C15.7667 32.7207 15.3261 32.9757 15.223 33.4069C15.1199 33.8382 15.3749 34.2713 15.8061 34.3744L18.3992 35.0232V36.3601C18.3992 37.0408 18.9599 37.5995 19.6405 37.5995H21.5999V38.4002H20.5198C20.1523 38.4002 19.8073 38.5595 19.5673 38.8408C19.3273 39.1202 19.2317 39.4896 19.2879 39.8496L19.4079 40.5621L16.9686 40.0183C16.5373 39.9227 16.1116 40.1946 16.016 40.6258C15.9204 41.0571 16.1923 41.4827 16.6235 41.5784L19.6948 42.259L19.9423 43.7553C20.0379 44.3553 20.5592 44.7959 21.1667 44.7959L21.5998 44.7922V46.2641C14.9604 45.561 9.17582 41.9365 5.56857 36.7033L5.56856 36.7035ZM26.3999 46.272V44.8001H26.8236C27.4311 44.8001 27.9524 44.3594 28.048 43.7594L28.2955 42.2631L31.3668 41.5825C31.7981 41.4869 32.0699 41.0631 31.9743 40.63C31.8787 40.1987 31.4455 39.9268 31.0218 40.0225L28.5824 40.5662L28.7024 39.8537C28.7661 39.4937 28.663 39.1262 28.423 38.8449C28.1924 38.5599 27.8399 38.4005 27.4799 38.4005H26.3999V37.5999H28.3593C29.0399 37.5999 29.6005 37.0411 29.6005 36.353V35.016L32.1918 34.3673C32.623 34.2641 32.8799 33.8235 32.7749 33.3998C32.6718 32.9685 32.2311 32.7116 31.8074 32.8167L29.6005 33.3773V32.4417C29.6005 31.761 29.0398 31.2004 28.3592 31.2004H26.3998V30.3998H28.2805C28.648 30.3998 28.993 30.2404 29.233 29.9591C29.473 29.6798 29.5687 29.3104 29.5124 28.9504L29.3043 27.7016L30.7049 27.1409C31.1137 26.9722 31.3124 26.509 31.1531 26.1003C30.9843 25.6915 30.5212 25.4928 30.1124 25.6521L29.0324 26.0834L28.8561 25.0353C28.7605 24.4352 28.2392 23.9946 27.6317 23.9946L26.3999 24.0002V23.1996H26.6792C27.0467 23.1996 27.3918 23.0402 27.6318 22.7589C27.8718 22.4796 27.9674 22.1102 27.9111 21.7502L27.7349 20.687L30.598 19.967C31.0293 19.8639 31.2862 19.4233 31.1811 18.9995C31.078 18.5683 30.6374 18.3114 30.2136 18.4164L27.4705 19.1046L27.2624 17.8333C27.1817 17.3608 26.8461 17.0008 26.4149 16.8564L26.4167 15.9995H26.6961C27.0636 15.9995 27.4086 15.8401 27.6486 15.5589C27.8887 15.2795 27.9843 14.9101 27.928 14.5501L27.7518 13.487L30.6149 12.7669C31.0462 12.6638 31.303 12.2232 31.198 11.7994C31.0949 11.3682 30.6543 11.1113 30.2305 11.2163L27.4874 11.9045L27.2793 10.6332C27.1986 10.1607 26.863 9.8007 26.4318 9.65631V8.70379C26.8949 8.52754 27.2324 8.07191 27.2324 7.54313V6.22312L29.8237 5.57434C30.2549 5.47121 30.5118 5.03059 30.4068 4.60684C30.3037 4.17558 29.863 3.9187 29.4393 4.02373L27.2005 4.57684V3.63934C27.2005 3.11056 26.8649 2.66243 26.3998 2.47868V1.72867C32.8876 2.42429 38.5517 5.89686 42.1762 10.9371C41.7993 14.6572 41.6006 18.6076 41.6006 22.6973C41.6006 27.5929 41.8893 32.4251 42.4331 36.6981C38.8237 41.9369 33.0394 45.5614 26.3999 46.2718L26.3999 46.272Z" fill="#0099A9"/>
</svg>
