<svg width="8" height="12" viewBox="0 0 8 12" fill="none" xmlns="http://www.w3.org/2000/svg">
<path d="M6.9948 5.90803C6.97504 5.73162 6.89893 5.56748 6.77818 5.4417L2.28152 0.729335C2.14026 0.582073 1.94852 0.5 1.74945 0.5C1.55038 0.500767 1.35936 0.58437 1.21884 0.732398C1.07832 0.880427 0.999274 1.08137 1 1.28999C1.00074 1.49861 1.08051 1.69879 1.22177 1.84605L5.18557 6L1.22177 10.1539C1.08051 10.3012 1.00074 10.5014 1 10.71C0.999273 10.9194 1.07832 11.1196 1.21884 11.2676C1.35937 11.4156 1.55038 11.4992 1.74945 11.5C1.94852 11.5008 2.14026 11.4179 2.28152 11.2707L6.77818 6.5583C6.94212 6.38802 7.02189 6.14797 6.9948 5.90789V5.90803Z" fill="white" stroke="white" stroke-width="0.5"/>
</svg>
