<svg width="37" height="50" viewBox="0 0 37 50" fill="none" xmlns="http://www.w3.org/2000/svg">
<path d="M26.48 16.0973L25.9832 14.9913L26.5924 1.71934C26.5924 1.33267 26.3159 1 25.9292 1C25.5426 1 25.2099 1.2765 25.2099 1.66316L24.5467 15.1016C24.5467 15.2117 24.5467 15.3219 24.6029 15.4342L25.2121 16.7066C26.1517 18.7522 26.6508 21.1306 26.5946 23.619L26.5384 34.8455V34.9556C26.5384 35.2883 26.5946 38.2174 26.5946 38.3838V40.4856C26.5946 40.706 26.4844 40.9284 26.3181 41.0948C26.1517 41.2611 25.9314 41.3151 25.7089 41.3151C25.3222 41.259 24.9896 40.9285 24.9896 40.4856V33.4631C24.9896 32.6336 24.3264 31.9705 23.4969 31.9705C22.6674 31.9705 22.0042 32.6336 22.0042 33.4631V45.2962C22.0042 45.5165 21.8941 45.739 21.7277 45.9053C21.5614 46.0717 21.3411 46.1257 21.1186 46.1257C20.7319 46.0695 20.3992 45.739 20.3992 45.2962V35.1221C20.3992 34.2926 19.7361 33.6295 18.9066 33.6295C18.0771 33.6295 17.4139 34.2926 17.4139 35.1221V46.9552C17.4139 47.1755 17.3038 47.398 17.1374 47.5644C16.9711 47.7307 16.7508 47.7847 16.5282 47.7847C16.1416 47.7285 15.8089 47.398 15.8089 46.9552V35.1758C15.8089 34.3463 15.1457 33.6831 14.3162 33.6831C13.4867 33.6831 12.8236 34.3463 12.8236 35.1758V45.4063C12.8236 45.6266 12.7134 45.8491 12.5471 46.0154C12.3808 46.1818 12.1604 46.2358 11.9379 46.2358C11.5512 46.1796 11.2186 45.8491 11.2186 45.4063V29.3129C11.2186 28.5936 10.7757 27.9866 10.1126 27.7101C9.44942 27.4336 8.73008 27.5438 8.23326 28.0428L8.1231 28.1529L8.06693 28.2091L4.47244 32.7433C4.25211 32.9636 3.91945 33.0759 3.58676 33.0759C3.25408 33.0759 2.92361 32.9657 2.64711 32.6892C2.42677 32.4689 2.37061 32.1924 2.42677 31.9159C3.03595 30.9201 10.9982 18.0346 13.2102 15.436C13.3204 15.3259 13.3766 15.1595 13.3766 15.0494L13.4867 13.2802V13.224L12.8776 1.83118C12.8776 1.44451 12.5449 1.16802 12.1582 1.16802C11.7715 1.16802 11.4951 1.50068 11.4951 1.88736L12.1042 13.2238L11.9941 14.7165C9.4494 17.8142 1.54351 30.697 1.21061 31.25C1.21061 31.3062 1.15444 31.3062 1.15444 31.3602C0.821782 32.1897 1.04427 33.0754 1.65128 33.6823C2.70109 34.7322 4.41627 34.7322 5.46608 33.6823L5.52224 33.6262L9.11673 29.092L9.1729 29.0359C9.33923 28.8695 9.50556 28.9257 9.55956 28.9797C9.61573 29.0359 9.7799 29.0899 9.7799 29.3124V45.4057C9.7799 46.5679 10.6656 47.5076 11.7716 47.6177C12.3808 47.6739 12.9877 47.4514 13.4306 47.0647C13.8734 46.6781 14.1499 46.0689 14.1499 45.4619V35.2314C14.1499 35.1213 14.3703 35.1213 14.3703 35.2314L14.3681 46.788C14.3681 47.9502 15.2538 48.8898 16.3598 49H16.5801C17.1331 49 17.6299 48.7797 18.0728 48.447C18.5156 48.0603 18.7921 47.4512 18.7921 46.8442V35.0111C18.7921 34.901 19.0124 34.901 19.0124 35.0111V45.1852C19.0124 46.3474 19.8981 47.287 21.0041 47.3972C21.6133 47.4534 22.2203 47.2309 22.6631 46.8442C23.1059 46.4575 23.3825 45.8484 23.3825 45.2414V33.4083C23.3825 33.2982 23.6028 33.2982 23.6028 33.4083V40.4308C23.6028 41.593 24.4885 42.5327 25.5945 42.6428C26.2036 42.699 26.8106 42.4765 27.2535 42.0898C27.6963 41.7032 27.9728 41.094 27.9728 40.487V38.3852C27.9728 38.329 27.9728 35.6202 27.9166 34.8469L27.9728 23.6205C28.083 20.9074 27.53 18.3648 26.4801 16.0969L26.48 16.0973Z" fill="#0099A9" stroke="#0099A9" stroke-width="0.2"/>
<path d="M27.4196 12.9458C27.5298 12.9458 27.6961 12.8896 27.8063 12.8356L32.6731 9.85032C33.0057 9.62999 33.1159 9.24114 32.8934 8.91067C32.6731 8.57801 32.2842 8.46784 31.9538 8.69033L27.0869 11.6756C26.7543 11.896 26.6441 12.2848 26.8666 12.6153C26.9768 12.8356 27.1971 12.9458 27.4196 12.9458H27.4196Z" fill="#0099A9" stroke="#0099A9" stroke-width="0.2"/>
<path d="M29.0784 16.0409C28.7458 15.8206 28.3591 15.8746 28.1388 16.2072C27.9185 16.5399 27.9725 16.9266 28.3051 17.1469L33.1719 20.6852C33.2821 20.7953 33.4485 20.7954 33.5586 20.7954C33.779 20.7954 34.0014 20.6852 34.1116 20.5189C34.332 20.1862 34.2779 19.7995 33.9453 19.5792L29.0784 16.0409Z" fill="#0099A9" stroke="#0099A9" stroke-width="0.2"/>
<path d="M36.1012 13.7188H27.6961C27.3095 13.7188 26.9768 14.0514 26.9768 14.4381C26.9768 14.8248 27.3095 15.1574 27.6961 15.1574H36.1012C36.4878 15.1574 36.8205 14.8248 36.8205 14.4381C36.8205 14.0514 36.4878 13.7188 36.1012 13.7188Z" fill="#0099A9" stroke="#0099A9" stroke-width="0.2"/>
<path d="M4.91323 9.73772L9.78005 12.723C9.89022 12.7792 10.0004 12.8332 10.1667 12.8332C10.3871 12.8332 10.6096 12.723 10.7759 12.5005C10.9962 12.1679 10.8861 11.7272 10.5556 11.5609L5.68874 8.57557C5.35608 8.35523 4.91543 8.4654 4.74909 8.79591C4.52443 9.07457 4.58059 9.5174 4.91325 9.73772H4.91323Z" fill="#0099A9" stroke="#0099A9" stroke-width="0.2"/>
<path d="M8.50772 15.6009L3.64089 18.5862C3.30823 18.8065 3.19806 19.1954 3.42056 19.5258C3.53072 19.7462 3.75322 19.8585 4.02974 19.8585C4.13991 19.8585 4.30624 19.8023 4.41641 19.7483L9.28323 16.763C9.61589 16.5427 9.72606 16.1538 9.50357 15.8234C9.22491 15.4886 8.83826 15.3784 8.50773 15.6009H8.50772Z" fill="#0099A9" stroke="#0099A9" stroke-width="0.2"/>
<path d="M2.97764 14.6584H10.1666C10.5533 14.6584 10.886 14.3257 10.886 13.9391C10.886 13.5524 10.5533 13.2197 10.1666 13.2197H2.97764C2.59097 13.2197 2.2583 13.5524 2.2583 13.9391C2.2583 14.3279 2.5888 14.6584 2.97764 14.6584Z" fill="#0099A9" stroke="#0099A9" stroke-width="0.2"/>
<path d="M15.5301 15.5442L16.7463 14.382L18.0186 15.9308C18.1288 16.0971 18.3513 16.2073 18.5716 16.2073C18.7919 16.2073 18.9583 16.0971 19.1246 15.9308L21.2804 13.3322L22.7191 15.6543C22.9394 15.987 23.3283 16.0971 23.6587 15.8746C23.9914 15.6543 24.1016 15.2655 23.8791 14.935L21.9436 11.7833C21.8334 11.617 21.6109 11.4507 21.3906 11.4507C21.1702 11.4507 20.9478 11.5068 20.7814 11.7272L18.5694 14.436L17.3533 12.9973C17.2431 12.831 17.0768 12.777 16.8564 12.7208C16.6361 12.7208 16.4698 12.777 16.3596 12.8871L14.5904 14.5461C14.3139 14.8226 14.3139 15.2655 14.5904 15.542C14.8108 15.7645 15.2536 15.8206 15.5301 15.5441L15.5301 15.5442Z" fill="#0099A9" stroke="#0099A9" stroke-width="0.2"/>
</svg>
